<?xml version="1.0" standalone="no"?><!DOCTYPE svg PUBLIC "-//W3C//DTD SVG 1.1//EN" "http://www.w3.org/Graphics/SVG/1.1/DTD/svg11.dtd" ><svg xmlns="http://www.w3.org/2000/svg"><metadata></metadata><defs><font id="Tensentype FanXiaoGeKaiShuF Regular" horiz-adv-x="2048"><font-face font-family="Tensentype FanXiaoGeKaiShuF" font-weight="400" font-stretch="normal" units-per-em="2048" panose-1="1 1 1 4 1 1 1 1 1 1" ascent="2007" descent="-451" x-height="1" bbox="15 -360 2025 2048" underline-thickness="102" underline-position="-309" unicode-range="U+0022-9ad8" /><missing-glyph horiz-adv-x="1024" d="M102 0 l0 2048 l820 0 l0 -2048 l-820 0 ZM820 102 l0 1844 l-616 0 l0 -1844 l616 0 Z" /><glyph glyph-name="quotedbl" unicode="&quot;" d="M164 795 q1 9 1 15 q0 9 -2 15 q-2 6 -2 8 q0 2 2 7 q5 13 5 149 q0 3 3 90 l7 49 q-5 42 -5 50 q0 12 12 12 q7 0 65 -26 q47 -21 47 -58 q0 -12 -32 -70 l-53 -149 q-33 -44 -44 -81 l-4 -11 ZM367 814 q14 82 15 123 q4 76 12 98 q23 59 22 63 q-9 64 -15 67 q-2 0 -2 1 l2 0 q1 1 6 4 q3 3 6 3 q4 0 31.5 -10 q27.5 -10 33.5 -14 q29 -18 29 -52 q0 -36 -42 -145 q-14 -35 -35 -64 q-3 -4 -16 -25 q-8 -11 -19 -16 q-12 -5 -24 -27 q-2 -2 -4 -6 Z" /><glyph glyph-name="numbersign" unicode="#" d="M613 842 q-82 -7 -184 -9 q-73 -1 -123 -18 q-39 -13 -58 -13 q-10 0 -15 6 q-1 2 -4 39 l-10 29 q0 10 47 14 l357 28 q17 2 31 76 q6 32 29 88 q19 48 19 62 q0 8 -11 26 l17 -5 q-4 6 -4 10 q0 10 4 8 l3 -1 q33 -13 33 -30 q0 -8 -5 -22 q-10 -25 -16 -68 q-8 -61 -16 -84 q-9 -25 -9 -42 q0 -13 13 -13 l107 3 l101 1 q53 238 54 239 q5 3 8 3 q12 0 26 -14 q13 -14 13 -29 q0 -4 -2 -12 l-23 -97 l-16 -64 l235 -42 q129 -35 134 -40 l-2 -3 q-3 -4 -58 -21 q-5 -2 -26 -14 q-22 -14 -26 -14 l-255 8 l-1 -1 q-8 -8 -8 -28 q-2 -48 -11 -76 q-11 -32 -11 -47 q0 -24 31 -24 l166 6 q16 0 163 -44 q32 -10 98 -23 q-10 -13 -61 -25 q-18 -4 -142 -29 q-1 0 -27 6 q-25 6 -84 6 q-67 0 -104 12 q-17 5 -25 5 q-19 0 -22 -31 q-5 -61 -24 -135 q-30 -113 -33 -135 q-9 -58 -24 -74 q-3 -3 -46 -36 q-2 -2 -13 -22 q-12 -23 -45 -63 q5 102 11 133 q62 325 71 339 q7 10 7 16 q0 15 -14 15 q-1 0 -4 -2 q-5 -2 -15 -2 l-71 2 l-41 -1 l-28 0 l-18 1 l-11 0 q-6 0 -8 -4 q0 -1 -87 -341 q0 -1 -53 -49 q-22 -20 -60 -64 l2 46 l98 401 l-65 -7 l4 7 q-84 -10 -126 -11 q-94 -2 -125 -20 q-25 -14 -38 -14 q-6 0 -13 8 q-12 14 -12 32 q0 13 21 32 q27 24 30 25 q3 0 5 3 q2 -2 3 -2 q1 0 28 -15 l177 39 q135 20 137 23 q11 13 20 71 q9 56 30 112 ZM641 660 q80 2 119 3 q23 1 31 1 q21 0 44 -1 q9 -1 15 -1 q10 0 18 4 q2 1 18 89 q14 53 14 56 q0 8 -4 12 q-5 5 -25 7 q-56 6 -77 9 q-61 7 -76 7 q-24 0 -37 -10 q-14 -10 -21 -59 q-10 -78 -19 -117 Z" /><glyph glyph-name="dollar" unicode="$" d="M41 658 l71 45 q8 -10 8 -14 q0 -11 -11 -29 q147 38 249 52 q100 14 274 18 q-47 65 -207 225 q-119 119 -203 271 q97 -47 139 -94 q9 -10 62 -74 q191 -195 229 -244 l53 49 l264 298 l42 55 l13 -52 q-16 -48 -286 -345 l-53 -56 l-13 -27 l490 -16 q92 -3 132 -22 q8 -4 7 -6 q-7 -16 -40 -31 q-40 -27 -62 -34 q-23 -7 -65 -7 q-156 0 -451 42 l11 -359 l-12 -218 l-81 -113 q-5 23 -15 23 q-3 0 -7 -1 l-1 102 l-2 293 q0 132 23 184 q23 51 22 63 q-2 20 -4 23 q-3 5 -240 7 q-141 -26 -182 -36 q-64 -16 -137 -58 l-17 86 Z" /><glyph glyph-name="quotesingle" unicode="&#39;" d="M308 967 q54 78 75 118 q51 98 53 101 q44 67 44 95 q0 5 -9 26 q20 5 32 5 q28 0 49 -23 q19 -21 19 -56 q0 -112 -173 -209 l-29 -24 q-27 -23 -61 -33 Z" /><glyph glyph-name="parenleft" unicode="(" d="M346 1271 q-34 -72 -104 -175 q-22 -33 -50 -126 q-37 -126 -37 -249 q0 -137 58 -267 q24 -56 150 -214 q65 -81 101 -130 q-121 15 -172 60 q-225 196 -225 534 q0 236 104 390 q48 72 175 177 Z" /><glyph glyph-name="parenright" unicode=")" d="M89 50 q45 83 70 123 q102 162 123 213 q11 27 24 109 q17 104 17 190 q0 188 -69 384 q-22 60 -90 155 q36 -2 57 -23 q56 -56 92 -144 q101 -251 101 -522 q0 -230 -105 -355 q-45 -54 -89 -79 q-45 -26 -131 -51 Z" /><glyph glyph-name="asterisk" unicode="*" d="M371 719 q-5 125 -5 173 q0 129 9 147 q8 14 21 14 q19 0 36 -19 q27 -29 27 -85 q0 -8 -17 -192 q66 63 100 93 q39 34 52 50 q47 54 68 54 q14 0 25 -13 q11 -13 11 -28 q0 -15 -13 -31 q-24 -31 -154 -149 q-63 -28 -63 -35 q0 -3 152 -120 q61 -47 61 -105 q0 -29 -18 -45 q-13 -12 -30 -12 q-26 0 -51 24 q-49 48 -89 122 q-30 56 -67 131 q-87 -153 -114 -191 q-58 -81 -110 -84 q-4 0 -18 23 q-17 31 -17 33 q0 13 51 70 q78 95 144 154 q-78 34 -122 50 q-75 27 -87 47 q-47 78 -47 79 l0 2 l0 1 q0 7 27 7 q42 0 89 -25 q57 -30 149 -140 Z" /><glyph glyph-name="comma" unicode="," d="M156 -41 q1 5 1 6 q-3 11 -7 10 q-4 -1 -9 -3 q64 59 89 111 q-61 3 -78 28 q-19 28 -19 69 q0 91 90 91 q51 0 82 -34 q22 -24 22 -54 q0 -49 -23 -102 q-23 -53 -58 -85 q-30 -27 -90 -37 Z" /><glyph glyph-name="hyphen" unicode="-" d="M110 634 l38 15 l414 65 l528 -2 q170 -1 218 -15 q56 -17 65 -17 q26 -3 26 -14 q0 -9 -53 -37 l-58 -49 q-14 -10 -51 -10 q-68 0 -287 30 l-146 7 l-261 22 l-4 0 q-325 -37 -331 -38 q-49 -8 -121 -46 q-2 -1 -4 -1 q-9 0 -27 34 q-14 26 -14 34 q0 8 34 47 q12 27 16 27 q18 0 18 -44 q0 -1 0 -8 Z" /><glyph glyph-name="period" unicode="." d="M258 302 q51 0 79 -31 q26 -29 26 -66 q0 -51 -42 -89 q-30 -27 -62 -27 q-42 0 -77 41 q-32 39 -32 87 q0 35 25 56 q33 29 83 29 Z" /><glyph glyph-name="slash" unicode="/" d="M121 9 l879 1323 q24 46 47 46 q28 0 28 -25 q0 -22 -24 -53 l-873 -1315 q-32 -45 -54 -45 q-21 0 -21 26 q0 14 18 43 Z" /><glyph glyph-name="zero" unicode="0" d="M482 1201 q46 -14 69 -37 q26 -27 60 -76 q39 -55 64.5 -188.5 q25.5 -133.5 25.5 -278.5 q0 -204 -63 -320 q-36 -67 -150 -134 q-55 -33 -99 -33 q-55 0 -116 79 q-50 65 -82 167 q-29 91 -29 184 q0 114 41 254 q37 125 118 230 q52 67 78 84 q80 50 82 67 l1 2 ZM499 1121 q-7 -1 -69 -84 q-39 -53 -54.5 -82.5 q-15.5 -29.5 -43.5 -100.5 q-60 -158 -60 -281 q0 -49 36 -176 q29 -106 41 -119 q2 -2 10 -3 l9 -1 q10 -2 87 77 q116 119 116 231 l-5 149 q-9 257 -23 272 q-2 2 -2 4 l2 3 q4 5 4 18 q0 55 -31 83 q-11 10 -17 10 Z" /><glyph glyph-name="two" unicode="2" d="M890 220 q-40 -18 -57 -31 l-117 -92 l-42 5 l-149 14 q-20 2 -92 25 q-28 1 -50 1 q-72 0 -154 -45 q-43 -21 -58 -21 q-19 0 -49 14 q-6 12 -9 18 q-10 20 -10 27 q0 17 24 50 q8 12 87 155 q62 114 163 215 l194 194 q100 99 127 202 q17 66 17 99 q0 24 -22 41 q-29 22 -69 22 q-99 0 -195 -72 q-56 -43 -65 -71 q-15 -49 -18 -51 q-6 -3 -11 -3 q-14 0 -29 15 q-15 15 -15 31 q0 32 92 92 q159 102 278 102 q23 0 68 -23 q72 -38 72 -96 q0 -45 -56 -191 q-28 -75 -67 -117 q-29 -32 -61 -61 q-121 -107 -152 -143 q-131 -157 -151 -194 q-38 -69 -57 -85 q-14 -13 -14 -21 l0 -13 q8 -7 118 21 q24 7 34 6 l36 -2 q1 0 13 1 q26 3 74 3 q180 0 372 -21 Z" /><glyph glyph-name="five" unicode="5" d="M205 367 q-2 -21 -2 -36 q0 -29 27 -56 q59 -59 93 -59 q41 0 111 28 q106 43 163 117 q34 44 62 102 q51 110 51 207 q0 65 -55 113 q-60 51 -124 51 q-90 0 -209 -63 q-56 -30 -73 -61 q-33 -63 -45 -63 q-37 0 -39 79 q-1 7 -1 13 q0 12 46 77 q32 44 50 132 q6 27 14 140 l-17 -15 q-9 0 -13 12 q-9 27 -9 51 q0 25 9 35 q4 4 49 8 q23 2 40 8 q28 -17 44 -17 q17 0 62 9 q86 18 142 18 q14 0 274 -35 q44 -6 44 -13 q0 -6 -7 -12 q-6 -3 -49 -16 q-29 -9 -56 -20 l1 -11 q-79 2 -296 29 q-22 3 -33 3 q-99 0 -135 -22 q-8 -4 -10 -154 q-1 -75 -26 -136 q151 75 257 75 q112 0 174 -67 q69 -74 69 -221 q0 -209 -113 -359 q-38 -50 -92 -81 q-117 -67 -213 -67 q-18 0 -100 38 q-101 45 -114 58 q-28 29 -28 71 q0 51 77 110 Z" /><glyph glyph-name="colon" unicode=":" d="M279 259 q37 0 67 -28 q28 -26 28 -56 q0 -28 -20 -55 q-33 -45 -79 -45 q-44 0 -70 43 q-15 24 -15 52 q0 40 33 68 q25 21 56 21 ZM301 722 q44 2 79 -35 q23 -24 23 -52 q0 -58 -49 -93 q-24 -17 -52 -17 q-37 0 -66 31 q-27 29 -27 65 q0 41 36 76 q22 23 56 25 Z" /><glyph glyph-name="semicolon" unicode=";" d="M286 82 q55 44 71 87 q-20 -3 -34 -3 q-26 0 -44 15 q-28 23 -28 64 q0 39 30 66 q26 24 62 24 q39 0 65 -30 q38 -45 38 -91 q0 -26 -22 -65 q-22 -39 -49 -62 q-15 -12 -32 -12 q-25 0 -57 7 ZM372 702 q43 0 73 -33 q25 -28 25 -58 q0 -24 -24 -45 q-43 -37 -93 -37 q-31 0 -51 28 q-21 28 -21 64 q0 39 31 62 q27 19 60 19 Z" /><glyph glyph-name="equal" unicode="=" d="M156 535 q217 42 347 42 q30 0 63 -2 l343 -23 l98 -33 l0 -8 l28 8 l-79 -97 l-350 22 q-87 5 -109 5 q-112 0 -290 -32 q-30 -5 -50 -5 q-20 0 -33 12 q-3 2 -20 58 q-34 42 -34 53 q0 37 41 37 q25 0 45 -37 ZM105 813 q26 34 41 34 q4 0 32 -20 q6 -5 15 -5 q25 0 73 16 q54 17 176 17 q75 0 350 -18 l141 -8 q59 -14 63 -14 q46 -3 54 -9 q7 -4 16 -26 q-33 -11 -40 -17 l-52 -54 q-4 -4 -10 -4 q-21 0 -102 25 q-30 10 -95 14 q-38 2 -201 13 q-24 2 -35 2 q-58 0 -175 -9 q-53 -5 -90 -5 q-60 -2 -84 -13 q-32 -15 -43 -15 q-13 0 -19 21 q-1 5 -6 46 q-2 13 -9 29 Z" /><glyph glyph-name="B" unicode="b" d="M332 1206 l86 -84 q169 28 223 28 q112 0 183 -70 q36 -36 36 -77 q0 -88 -77 -169 q-58 -60 -189 -107 q184 -48 254 -115 q65 -63 65 -128 q0 -72 -89 -133 q-41 -28 -127 -74 q-13 -7 -104 -35 q-99 -40 -120 -40 q-63 0 -136 27 q-6 2 -9 2 q-9 0 -15 -6 q0 -1 -41 -99 q-8 -17 -20 -28 q-3 -2 -85 -50 q-16 -9 -27 -20 q-2 -2 -3 -2 q-1 0 -4 2 q-1 1 -7 3 q-6 2 -12 7 q-4 4 -6 4 q-1 0 -3 -3 l-8 -7 l-10 9 l-11 3 l136 323 q45 106 107 355 q37 151 37 335 q0 66 -24 149 ZM335 348 q74 -15 97 -15 q134 0 284 88 q89 53 89 103 q0 49 -78 92 q-103 57 -180 52 l-133 -8 l0 -1 q-24 -12 -27 -15 q-12 -14 -11 -87 q0 -25 -21 -113 q-7 -28 -20 -96 ZM637 1106 q-66 4 -170 -26 q-63 -18 -63 -51 q0 -2 1 -10 q3 -31 3 -75 q0 -33 -2 -61 q-5 -84 -5 -105 q0 -24 26 -24 q34 0 126 42 q119 54 165 102 q62 64 62 115 q0 28 -31 54 q-40 34 -112 39 Z" /><glyph glyph-name="C" unicode="c" d="M885 1120 q18 -33 29 -47 q20 -25 20 -31 q0 -13 -16 -22 q-9 -5 -12 -5 q-21 0 -104 60 q-42 31 -96 31 q-165 0 -255 -86 q-90 -87 -154 -242 q-42 -103 -42 -171 q0 -16 14 -84 q9 -40 13 -81 q31 -33 59 -80 q65 -114 179 -114 q61 0 106 14 q30 9 42 24 l98 114 q3 4 11 4 q21 0 21 -20 q0 -70 -52 -132 q-55 -67 -133 -102 q-60 -27 -117 -27 q-103 0 -204 75 q-135 102 -135 321 q0 258 221 502 q42 46 104 77 q92 45 196 45 q60 0 207 -23 Z" /><glyph glyph-name="D" unicode="d" d="M171 1112 q121 24 194 24 q90 0 206 -44 q159 -61 252 -181 q92 -119 92 -266 q0 -61 -15 -108 q-19 -54 -63 -134 q-54 -78 -83 -111 q-14 -16 -130 -88 q-56 -39 -74.5 -48.5 q-18.5 -9.5 -73.5 -29.5 q-127 -45 -192 -45 q-23 0 -58 2 q-6 13 -6 20 q0 7 8 22 l-18 10 q32 9 43 23 q14 18 73 187 q39 113 81 336 q14 78 34 299 l2 28 q0 37 -13 46 q-4 2 -5 3 l-165 -8 q-16 -1 -89 63 ZM388 196 q245 115 326 222 q90 120 90 256 q0 200 -175 312 q-105 67 -153 67 q-16 0 -16 -8 q0 -3 10 -21 q16 -28 16 -76 q0 -103 -17 -387 q-11 -171 -71 -336 l-10 -29 Z" /><glyph glyph-name="E" unicode="e" d="M233 1119 q42 -9 51 -15 l62 -37 q22 -13 42 -13 q33 0 122 22 q60 15 134 15 q304 0 304 -37 q0 -25 -46 -25 q-30 0 -165 20 q-45 6 -99 6 q-139 0 -235 -43 l45 -117 q43 -153 43 -154 q9 -8 28 -8 q20 0 128 21 q25 5 44 5 q78 0 172 -35 q65 -25 65 -38 q0 -3 -4 -7 q-4 -4 -17 -22 q-23 -32 -34 -31 l-230 12 q-133 -25 -139 -32 q-5 -5 -5 -18 q0 -5 1 -9 q2 -4 2 -5 q0 -1 -2 -5 q-9 -17 -9 -79 q0 -82 -73 -228 l154 13 l415 -23 l96 -9 q-53 -23 -68 -36 l-73 -61 q-9 -8 -29 -8 q-7 0 -247 33 q-153 3 -183 5 q-9 1 -12 1 q-16 0 -42 -5 q-207 -43 -215 -43 q-27 0 -27 73 q0 28 4 35 q10 18 78 50 q39 19 57 68 q60 162 60 300 q0 132 -46 298 q-21 76 -107 166 Z" /><glyph glyph-name="G" unicode="g" d="M986 571 q-36 -59 -85 -59 q-23 0 -48 6 q-76 17 -109 17 q-16 0 -15 -16 q1 -10 7 -72 q2 -14 2 -23 q0 -24 -13 -161 q-11 -118 -29 -150 q-20 -37 -81 -87 l0 11 l-11 -24 q-1 47 -1 66 q0 90 20 221 q-122 -107 -230 -107 q-100 0 -167 72 q-43 47 -70 134 q-24 76 -24 159 q0 249 158 434 q79 92 186 132 q121 45 249 45 q39 0 55 -18 q18 -20 35 -90 q6 -26 6 -31 q0 -26 -27 -26 q-10 0 -83 71 q-16 16 -54 16 q-102 0 -199 -56 q-98 -57 -158 -161 q-82 -143 -82 -312 q0 -125 53 -222 q43 -81 123 -81 q87 0 165 70 q94 83 94 189 q0 24 -37 26 q-4 0 -64 7 q-7 1 -10 1 q-17 0 -37 -7 q-45 -17 -57 -17 q-34 0 -68 36 q-9 10 -9 15 q0 21 85 24 q4 0 7 0 q4 0 6 0 l381 -11 l136 -21 Z" /><glyph glyph-name="H" unicode="h" d="M125 114 q72 142 100 250 q20 79 71 313 q9 42 11 127 l3 126 l6 138 q-3 30 -26 94 q98 -62 98 -121 q0 -27 -6 -60 q-5 -29 -5 -31 q11 -189 13 -196 q3 -9 15 -9 l2 0 l39 8 l145 8 l57 4 q25 0 77 -21 q5 67 9 101 q11 104 11 136 q0 69 6 90 q6 20 6 27 q0 1 -19 68 q34 -3 51 -20 q17 -17 17 -36 q0 -8 -5 -28 q-5 -22 -5 -44 q0 -31 5 -101 l33 -478 q4 -51 4 -106 q0 -125 -23 -158 q-5 -8 -110 -80 q-5 -6 -39 -39 l-1 -1 q-1 0 -1 1 l-1 0 q-11 8 -11 59 q0 26 8 82 l62 466 l2 8 q1 10 -8 14 l-20 -6 q-25 -6 -31 -6 q-6 0 -23 5 q-26 8 -108 8 q-20 0 -36 -2 q-17 -2 -18 -2 l-54 3 q-44 2 -44 -55 q0 -131 -71 -370 q-20 -69 -53 -98 q-18 -16 -36 -31 q-21 -16 -60 -51 q-5 6 -5 9 l0 1 l0 1 q0 3 10 6 l-42 -3 Z" /><glyph glyph-name="J" unicode="j" d="M155 129 q115 45 179 102 q81 72 124.5 130 q43.5 58 64.5 125 q72 220 72 369 q-1 162 3 180 q7 29 7 45 q0 22 -34 79 q103 -59 103 -101 q0 -3 -18 -80 q-2 -7 -2 -15 q0 -23 8 -82 q7 -46 7 -104 q0 -239 -53 -433 q-39 -142 -113 -181 q-34 -17 -153 -42 q-76 -15 -87 -15 q-11 0 -39 6 q-15 19 -39 19 q-12 0 -30 -2 Z" /><glyph glyph-name="L" unicode="l" d="M344 1239 q58 -29 73 -58 q14 -29 14 -79 q0 -23 -4 -80 q-5 -73 -10 -172 q-13 -290 -45 -441 q-7 -34 -39 -138 l399 20 q62 3 205 101 q-6 -17 -10 -91 q-86 -129 -98 -129 l-4 2 q1 -9 1 -14 q0 -21 -18 -20 l-116 7 l-327 18 l-6 0 q-6 0 -48.5 -9.5 q-42.5 -9.5 -49.5 -12.5 q-62 -32 -79 -32 q-8 0 -18 10 q-16 16 -16 46 q0 26 4 31 l95 140 q62 91 103 422 q19 149 19 285 q0 104 -7 130 q-3 8 -30 51 q-1 2 -1 4 q0 4 13 9 Z" /><glyph glyph-name="M" unicode="m" d="M671 482 q224 429 224 566 q0 46 -5 108 q120 -73 120 -94 q0 -7 -4 -11 q-1 -1 -32 -10 q-2 0 -2 -4 q0 -9 8 -30 l124 -324 q67 -177 101 -234 q87 -146 99 -174 q10 -21 10 -55 q0 -58 -37 -58 q-16 0 -82 42 q-42 14 -49 24 q-38 62 -80 230 l-128 514 l-1 2 l-38 -161 l-134 -379 q-59 -165 -78 -175 q-6 -3 -12 -3 q-12 0 -22 9 q-28 25 -133 346 l-82 337 l-22 89 q-21 -231 -38 -341 q-13 -90 -67 -267 q-29 -100 -36 -118.5 q-7 -18.5 -18 -31.5 q-43 -48 -109 -66 l-38 -17 q-8 0 -14 8 q-13 15 -13 31 q0 10 12 35 q3 7 112 157 q51 71 106 288 q10 40 42 210 q20 110 20 132 q0 10 -5 23 q-17 40 -16 44 q1 6 7 7 l4 2 q1 0 39 -18 q51 -34 52 -38 l1 -1 l-2 -34 q0 -1 10 -26 l206 -534 Z" /><glyph glyph-name="N" unicode="n" d="M290 1121 q13 0 23 0 q30 0 47 -11 q12 -8 32 -65 q3 -9 26 -30 q49 -45 63 -70 l227 -402 l123 -173 l44 490 l12 218 l-36 5 l-16 12 l143 14 l-38 -175 l68 -543 q10 -78 10 -170 q0 -35 -13 -53 q-3 -4 -25 -27 q-18 -23 -24 -27 q-6 -4 -21 -4 q-36 0 -76 23 q-54 29 -162 230 l-276 511 l-20 30 q-2 -168 -27 -308 q-34 -191 -58 -243 l-34 -72 q-22 -63 -45 -76 q-5 -3 -41 -16 q-42 -15 -52 -15 q-9 0 -18 10 q-8 9 -8 19 q0 8 94 206 q36 75 76 226 q45 170 45 328 q0 74 -17 115 q-5 13 -26 43 Z" /><glyph glyph-name="O" unicode="o" d="M532 1127 q4 0 40 -16 q76 -11 89 -20 q132 -95 167 -197 q67 -196 67 -344 q0 -105 -63 -207 q-60 -97 -165 -156 q-91 -51 -185 -51 q-162 0 -259 208 q-81 171 -81 308 q0 59 43 167 q40 98 51.5 118.5 q11.5 20.5 43.5 48.5 q103 88 209 128 q34 13 43 13 ZM591 1080 q-53 4 -129 -39 q-89 -48 -138 -130 q-73 -123 -73 -290 q0 -189 103 -321 q49 -62 113 -59 q70 4 177 80 q108 77 108 342 q0 261 -102 393 q-16 21 -59 24 Z" /><glyph glyph-name="P" unicode="p" d="M153 88 l31 37 l128 329 q126 322 126 518 q0 45 -11 91 q-6 26 -27 26 q-30 0 -63 -20 q-87 -53 -90 -53 q-7 -1 -9 -3 q-4 -3 -5 -3 l-13 12 l-6 13 q-15 35 -15 36 q4 6 4 7 l-2 9 l2 1 q15 6 43 6 q13 0 102 36 q53 21 149 21 q255 0 336 -92 q47 -53 47 -112 q0 -87 -37 -164 q-17 -37 -43 -55 l-80 -54 q-76 -53 -104 -61 q-16 -5 -157 -26 q-61 -274 -74.5 -325 q-13.5 -51 -35.5 -82 q-38 -54 -85 -57 q-32 -1 -41 -7 l-44 -28 q-1 5 -5 6 q-7 1 -21 -6 ZM455 1085 q40 -87 38 -119 l-3 -66 l-3 -131 q0 -22 -17 -97 q60 32 169 84 q91 44 135 118 q23 40 23 75 q0 49 -47 86 q-73 57 -177 57 q-22 0 -118 -7 Z" /><glyph glyph-name="S" unicode="s" d="M842 190 q-71 -46 -126 -60 q-86 -23 -168 -23 q-150 0 -281 46 q-69 25 -69 71 q0 29 45 86 q32 40 37 42 l4 1 l14 -7 q6 -4 46 -90 q7 -15 63 -34 q77 -26 135 -26 q86 0 190 64 q84 52 122 122 q19 35 19 60 q0 48 -68 106 q-81 69 -186 99 q-13 4 -209 36 q-46 7 -83 44 q-49 49 -49 111 q0 62 47 130 q72 103 229 151 q159 48 235 48 q6 0 29 -3 q28 -4 36 -4 q64 0 92 7 q52 -41 56 -61 q2 -7 4 -9 l2 -3 l-2 -3 q-8 -10 -20 -10 l-86 18 q-55 12 -108 12 q-163 0 -300 -80 q-136 -80 -136 -193 q0 -58 38 -82 q8 -6 270 -63 q62 -14 181 -84 q170 -99 170 -203 q0 -53 -54 -115 q-57 -67 -88 -84 q-23 -11 -31 -17 Z" /><glyph glyph-name="T" unicode="t" d="M264 1068 q327 62 533 62 q231 0 488 -71 q-45 -20 -67 -56 q-20 -3 -34 -3 q-19 0 -96 27 q-75 26 -358 42 l14 -56 l12 -441 q5 -179 5 -194 q0 -13 -13 -139 q-5 -47 -12 -53 l-68 -59 q-59 -86 -65 -86 q-10 0 -10 35 q-21 139 -21 156 q0 35 5 81 q41 363 48 398 q20 91 41 242 q17 65 17 71 q0 20 -16 34 q-16 14 -38 14 q-37 0 -91 -13 q-68 -17 -212 -35 q-63 -8 -85 -27 q-3 -3 -34 -39 q-8 -10 -23 -10 q-14 0 -24 10 q-5 5 -11 52 q-10 28 -10 32 q0 11 9 20 q4 4 56 15 q2 1 38 19 q3 2 6 2 q18 0 17 -22 q0 -4 -1 -8 Z" /><glyph glyph-name="U" unicode="u" d="M205 1128 q136 -118 136 -150 q0 -7 -22 -45 q-9 -14 -9 -248 q0 -17 34 -220 q19 -113 57 -145 q41 -33 121 -33 q107 0 188 51 q49 32 67 99 q85 314 85 468 q0 62 -42 244 q125 -79 125 -120 l-1 -11 q0 -3 -11 -22 q-2 -3 -9 -118 l-27 -404 q-12 -183 -128 -290 q-60 -56 -194 -56 q-155 0 -247 73 q-60 47 -91 166 q-45 172 -45 380 q0 51 5 92 q24 201 24 206 q0 19 -16 83 Z" /><glyph glyph-name="V" unicode="v" d="M584 277 l238 388 l183 427 l-10 60 q32 -15 53 -41 q42 -56 42 -69 q0 -9 -5 -13 q-2 -2 -32 -10 q-7 -2 -14 -20 l-135 -351 l-135 -276 q-78 -169 -88 -185 q-40 -63 -92 -63 q-44 0 -73 24 q-5 4 -24 31 q-25 15 -28 20 q-12 16 -39 110 l-196 679 q-3 10 -66 102 q-9 14 -9 16 q0 8 10 8 q3 0 92 -48 q34 -18 37 -22 q13 -12 24 -41 l212 -582 l55 -144 Z" /><glyph glyph-name="bracketleft" unicode="[" d="M115 -199 l0 1606 l341 0 l0 -78 l-213 0 l0 -1449 l213 0 l0 -79 l-341 0 Z" /><glyph glyph-name="bracketright" unicode="]" d="M94 -177 l0 85 l213 0 l0 1441 l-213 0 l0 78 l348 0 l0 -1604 l-348 0 Z" /><glyph glyph-name="a" unicode="a" d="M905 217 q-29 -27 -42 -45 q-19 -26 -28.5 -32 q-9.5 -6 -29.5 -6 q-50 0 -91 4 q-46 4 -71 33 q-45 54 -67 205 q-52 -97 -119 -143 q-117 -80 -209 -80 q-53 0 -103 57 q-62 71 -62 180 q0 166 123 301 q86 94 275 162 q92 33 143 33 q13 0 27 -8 q30 -16 32 -16 l45 6 q11 -13 11 -23 q0 -5 -2 -14 q-47 -192 -47 -293 q0 -100 28 -217 q27 -118 98 -118 q38 0 89 14 ZM641 764 l0 3 l0 2 q0 5 -13 11 q-44 22 -89 22 q-55 0 -161 -57 q-140 -76 -188 -219 q-29 -86 -29 -140 q0 -51 35 -97 q36 -49 91 -49 q59 0 139 69 q125 109 186 359 q12 48 21 68 q8 20 8 28 Z" /><glyph glyph-name="b" unicode="b" d="M269 1188 l20 2 q70 -48 79 -96 q8 -45 15 -115 l32 -350 l-5 -24 q191 -10 206 -14 q73 -19 120 -96 q25 -42 25 -73 q0 -87 -71 -175 q-9 -11 -22.5 -18 q-13.5 -7 -85.5 -37 q-111 -49 -155.5 -61.5 q-44.5 -12.5 -112.5 -12.5 q-22 0 -44 2 q-31 4 -46 4 q-18 0 -52 -17 q-4 13 -12 42 q103 291 110 322 q40 184 40 545 q0 72 -9 102 q-7 25 -32 70 ZM353 271 q60 7 88 21 q45 22 53 22 l28 -1 q24 0 63 45 q43 51 43 93 q0 21 -23 41 q-42 36 -84 34 q-113 -5 -116 -8 q-5 -5 -18 -138 q-2 -24 -22 -78 q-4 -10 -12 -31 Z" /><glyph glyph-name="c" unicode="c" d="M580 283 q-4 -26 -7 -29 l-50 -51 q-44 -49 -58 -60 q-37 -27 -91 -27 q-93 0 -171 65 q-52 43 -81 136 q-32 103 -32 172 q0 111 89 228 q101 132 265 192 q97 35 141 35 q10 0 15 -6 q1 -1 14 -35 q34 -41 34 -49 q0 -23 -21 -23 q-6 0 -70 39 q-13 7 -21 7 q-78 0 -198 -84 q-62 -44 -99 -103 q-63 -101 -63 -210 q0 -109 82 -184 q65 -59 156 -59 q52 0 166 46 Z" /><glyph glyph-name="d" unicode="d" d="M797 1266 q31 5 51 5 q15 0 47 -10 q-35 -61 -55 -91 q-101 -153 -111 -176 q-16 -39 -75 -207 q-12 -35 -18 -93 l-8 -79 q-27 -154 -27 -183 q0 -72 22 -166 q5 -22 34 -61 l39 -52 q3 -5 3 -13 q0 -17 -28.5 -35.5 q-28.5 -18.5 -54.5 -18.5 q-26 0 -45 21 q-5 5 -37 45 q-19 24 -32 82 q-137 -81 -217 -81 q-83 0 -135 60 q-49 54 -49 125 q0 125 100 236 q73 82 152 97 q174 31 177 35 q14 16 41 134 q11 49 72 148 q90 144 129 184 q45 47 45 63 q0 10 -20 31 ZM477 640 q-2 0 -5 -1 q-3 -1 -54 -12 q-222 -48 -222 -226 q0 -86 38 -141 q18 -26 44 -21 q134 25 164 33 q32 8 43 21 l2 3 l-12 90 l2 32 l2 61 l21 141 q0 20 -23 20 Z" /><glyph glyph-name="e" unicode="e" d="M802 374 q-21 -101 -68 -140 q-121 -100 -317 -100 q-43 0 -81 10 q-66 17 -104 19 q-38 2 -96 80 q-90 123 -90 254 q0 68 106 169 q80 76 141 112 q92 55 238 55 q117 0 199 -51 q28 -17 82 -101 q27 -42 27 -74 l-1 -35 q2 -35 2 -36 q0 -15 -11 -15 q-22 0 -93 24 q-55 19 -184 19 q-193 0 -330 -41 q-91 -27 -91 -62 q0 -67 70 -145 q57 -63 190 -63 q184 0 358 92 q21 11 53 29 ZM182 585 q16 -10 28 -10 q10 0 120 24 q79 18 215 18 q64 0 174 -11 q-15 64 -48 90 q-89 71 -203 71 q-63 0 -138 -49 q-51 -33 -148 -133 Z" /><glyph glyph-name="f" unicode="f" d="M387 539 q-4 80 -4 143 q0 129 64 184 q50 44 132 81 q85 38 138 38 l4 0 q12 0 16 -5 l57 -65 q0 -3 2 -8 l-2 -3 l-3 -6 l-4 -1 q-2 -1 -4 -2 l-2 -1 q-1 0 -4 2 q-7 5 -128 25 q-13 2 -91 -39 q-132 -70 -132 -180 q0 -19 3 -42 q8 -56 9 -63 q3 -42 12 -50 q5 -4 216 -7 l161 -43 l35 -11 l-26 -21 l-18 -28 l-18 -7 q-17 -18 -28 -18 q-12 0 -30 8 q-108 45 -144 47 l-112 7 l-26 2 q-20 -1 -20 -22 q0 -17 10 -58 q9 -34 9 -100 q0 -266 -105 -485 q-37 -77 -121 -107 q-41 -15 -147 -34 l2 9 q-11 -4 -18 -4 q-15 -1 -15 10 l0 2 q0 5 20 16 q15 7 141 150 q71 81 131 360 q29 134 39 262 q-14 8 -28 9 q-24 0 -269 -56 q-57 -30 -66 -29 l-8 1 q23 78 27 81 q10 7 114 22 q157 26 231 36 Z" /><glyph glyph-name="g" unicode="g" d="M143 -287 q107 21 150 50 q154 102 219 247 q36 81 91 356 q-74 -108 -118 -145 q-55 -45 -100 -45 q-58 0 -108 58 q-56 65 -56 149 q0 132 102 264 q56 72 106 87 q76 22 133 22 q47 0 78 -28 q39 -33 44 -45 q13 -28 13 -65 l1 -201 l2 -150 q-6 -115 -50 -254 q-38 -122 -86 -186 q-56 -74 -144 -114 q-59 -27 -119 -27 q-42 0 -158 27 ZM520 685 q-83 0 -138 -68 q-76 -92 -76 -206 q0 -71 30 -118 q15 -24 42 -23 q55 3 158 153 q47 68 69 145 q12 43 12 66 q0 13 -12 23 q-31 28 -85 28 Z" /><glyph glyph-name="h" unicode="h" d="M238 1117 q70 -28 92 -60 q26 -39 26 -111 q0 -41 -6 -157 q-2 -39 -5 -118 q98 49 161 49 q39 0 78 -22 q49 -28 49 -105 q0 -39 -27 -322 q-2 -12 -2 -19 q0 -40 33 -40 q45 0 138 75 q-12 -27 -21 -39 q-19 -29 -29 -57 l-37 -26 q-51 -56 -61.5 -65 q-10.5 -9 -24.5 -9 q-44 0 -85 51 q-43 53 -43 139 q0 17 2 29 l55 358 l2 3 q0 1 -5 3 q-25 6 -49 6 q-65 0 -123 -48 q-8 -6 -17 -65 l-14 -85 l-27 -107 q-16 -89 -26 -117.5 q-10 -28.5 -37 -66.5 q-30 -41 -103 -49 l5 9 l-21 3 l-8 11 q-4 5 -4 12 q0 8 2 23 q2 17 47 70 q42 50 90 210 q55 185 55 436 q0 100 -16 138 q-8 20 -44 63 Z" /><glyph glyph-name="i" unicode="i" d="M303 842 q53 -16 72 -37 q20 -21 21 -36 l13 -115 q35 -161 35 -190 q0 -48 -10 -114 q-11 -77 -12 -113 q-2 -65 -22 -81 q-3 -2 -64 -40 l-54 -40 q-2 0 -9 1 l-8 -31 q-35 19 -35 67 q0 21 4 46 l40 247 q6 33 49 208 q21 83 21 153 q0 38 -41 75 ZM377 1044 q50 0 79 -18 q30 -18 30 -44 q0 -10 -28 -48 q-22 -39 -60 -39 q-85 0 -85 114 q0 22 8 29 q6 6 56 6 Z" /><glyph glyph-name="j" unicode="j" d="M61 -253 q95 11 140 42 q159 109 182 280 l34 252 q24 183 24 261 q0 34 -20 86 q61 -18 61 -79 l6 -539 q4 -350 -301 -350 q-41 0 -62 7 q-24 8 -64 40 ZM454 974 q48 0 76 -43 q14 -22 14 -46 q0 -34 -27 -55 q-34 -28 -67 -28 q-26 0 -43 26 q-21 30 -21 71 q0 75 68 75 Z" /><glyph glyph-name="k" unicode="k" d="M269 1124 q49 -17 66 -37 q12 -15 13 -25 l6 -59 q31 -200 31 -208 q0 -20 -3 -70 q-2 -28 -2 -63 q0 -38 3 -115 q51 38 75 59 q82 73 156 207 q12 22 19 31 q18 25 19 34 q1 20 9 20 q13 0 28 -14 q18 -18 18 -48 q0 -53 -32 -95 q-79 -101 -165 -178 q-27 -25 -87 -47 l321 -258 q155 -136 155 -138 q0 -7 -59 -9 q-79 -17 -90 -17 q-42 0 -111 66 q-135 130 -161 180 l-55 104 q-6 11 -42 51 q-7 -62 -10 -93 q-15 -139 -45 -200 q-42 -82 -95 -103 q-26 -10 -34 -10 q-34 0 -42 23 q-4 11 -4 12 l-1 1 q0 2 2 2 l4 31 q0 14 42 65 q6 7 71 172 l24 126 q45 211 45 325 q0 111 -22 176 q-11 35 -47 102 Z" /><glyph glyph-name="l" unicode="l" d="M266 1058 q28 -28 35 -41 q7 -13 13 -48 q30 -192 30 -327 q0 -50 -24 -255 q-8 -70 -12 -84 q-14 -46 -74 -124 q113 9 166 9 l106 0 q89 0 152 40 q37 23 83 94 q2 -22 2 -39 q0 -44 -58 -125 q-46 -64 -160 -64 q-8 0 -179 9 l-30 1 q-153 -3 -176 -14 q-25 -11 -36 -11 q-6 0 -14 25 q-11 33 -11 36 q0 13 69 102 q54 71 95 224 q37 144 37 405 l0 26 q0 73 -14 161 Z" /><glyph glyph-name="m" unicode="m" d="M27 155 l15 72 l229 550 q31 106 34 107 q2 1 5 1 q12 0 21 -10 q10 -10 131 -236 l113 -285 l17 -49 l189 414 q61 133 62 152 q0 2 -5 18 l15 -7 q2 17 7 20 l1 1 l2 -1 q7 -2 21 -67 q4 -19 65 -166 l60 -168 l54 -107 q51 -103 64 -141 q13 -38 13 -87 q0 -35 -23 -57 q-10 -10 -24 -10 q-62 0 -92 129 l-72 299 l-62 231 l-103 -288 q-47 -118 -70 -179 q-14 -39 -30 -58 q-18 -22 -28 -37 q-36 -55 -58 -55 q-47 0 -102 195 l-128 453 l-144 -446 q-67 -210 -94 -226 q-34 -21 -44 -34 l-39 72 Z" /><glyph glyph-name="n" unicode="n" d="M332 773 q75 75 115 97 q40 22 85 22 q83 0 118 -40 q30 -34 31 -70 l12 -413 q3 -118 29 -118 l79 26 q4 2 6 2 q6 0 14 -7 q11 -10 11 -23 q0 -44 -51 -92 q-44 -42 -98 -42 q-44 0 -76 34 q-40 42 -40 214 q0 107 11 189 q19 135 19 188 q0 49 -35 80 q-25 23 -48 23 q-68 0 -143 -76 q-50 -51 -50 -122 q0 -17 2 -63 q1 -18 1 -42 q0 -114 -12 -217 q-8 -71 -9 -88 q-3 -78 -30 -98 q-28 -21 -54 -21 q-22 0 -37 18 q-19 23 -19 59 q0 22 41 192 q11 48 31 218 q8 65 25 191 q3 21 3 36 q0 25 -12 36 q-4 3 -80 29 q-3 1 -3 3 q0 8 30 8 l10 0 q43 0 72 -19 q35 -23 52 -114 Z" /><glyph glyph-name="o" unicode="o" d="M366 876 q3 0 34 -9 q88 -3 101 -8 q58 -22 108 -98 q81 -122 81 -284 q0 -190 -117 -293 q-90 -79 -192 -79 q-79 0 -143 57 q-81 71 -106 237 q-7 49 -7 105 q0 184 96 280 q61 59 122 85 q16 7 23 7 ZM408 816 q-14 0 -51.5 -24 q-37.5 -24 -61.5 -48 q-71 -71 -71 -229 q0 -134 29 -193 q15 -30 55 -53 q32 -19 71 -19 q67 0 124 66 q75 86 75 215 q0 142 -52 235 q-12 20 -50 31 q-64 19 -68 19 Z" /><glyph glyph-name="p" unicode="p" d="M26 -264 q63 35 102 84 q87 108 134.5 201.5 q47.5 93.5 70.5 204.5 q50 234 50 415 q0 45 -9 55 q-2 2 -61 24 q-22 8 -43 59 q48 -6 143 -35 q176 0 206 -7 q85 -21 135 -88 q43 -58 43 -128 q0 -66 -50 -123 q-55 -62 -120 -96 q-123 -64 -151 -64 q-9 0 -37 12 q-32 -207 -68 -310 q-48 -138 -115 -181 q-23 -14 -65 -29 q-64 -23 -101 -23 q-21 0 -34 18 q-6 -2 -9 -2 q-6 0 -21 13 ZM447 331 q156 71 228 156 q36 42 36 83 q0 36 -30 70 q-19 23 -56 30 q-120 26 -147 26 q-39 0 -39 -12 l2 -74 l6 -279 Z" /><glyph glyph-name="r" unicode="r" d="M139 886 q21 3 32 11 q95 -35 121 -81 q33 -57 44 -212 q78 99 104 121 l163 139 q14 12 47 98 q62 -38 62 -70 q0 -7 -226 -224 q-12 -12 -54 -79 q-42 -67 -60 -103 q-14 -27 -26 -110 l-14 -97 q-67 -180 -76 -189 q-20 -22 -51 -22 l-35 5 l-1 0 l-1 0 q-4 -5 -11 -5 q-19 0 -41 28 q-13 18 -13 24 q0 1 45 74 q15 24 50 170 q41 175 41 314 q0 73 -4 107 q-7 54 -96 101 Z" /><glyph glyph-name="s" unicode="s" d="M136 260 l4 12 q38 -63 72 -74 q22 -7 54 -7 q130 0 192 59 q44 42 44 87 q0 70 -71 147 q-17 18 -164 122 q-41 29 -41 72 q0 58 54 126 q36 45 102 84 q123 71 182 71 q23 0 78 -25 q71 -31 71 -74 q0 -35 -32 -35 q-7 0 -88 45 q-27 15 -71 15 q-59 0 -113 -25 q-75 -34 -120 -110 q-22 -37 -22 -70 q0 -20 9 -31 q26 -33 155 -114 q89 -55 140 -157 q33 -67 33 -106 q0 -44 -44 -96 q-24 -27 -93 -46 q-110 -31 -154 -31 q-35 0 -108 17 q-61 14 -78 33 q-20 23 -20 61 q0 35 16 52 q4 3 5 3 l1 0 q3 0 7 -5 Z" /><glyph glyph-name="t" unicode="t" d="M506 1011 q-5 14 -14 19 l-2 2 q0 7 17 7 q48 0 59 -35 l1 -3 q0 -1 -36 -58 q-16 -25 -37 -72 q-33 -73 -32 -91 l2 -32 q1 -10 -10 -16 l2 -2 q8 -8 26 -8 q34 0 80 7 q15 2 18 2 q2 0 182 -20 q130 -34 132 -39 l1 -1 l-1 -1 q0 -1 0 -2 q-1 0 -112 -51 l-232 42 l-74 7 q-18 3 -20 3 q-11 0 -16 -28 q-5 -31 -18 -91 q-6 -27 -6 -41 q0 -11 5 -37 q8 -42 12 -81 q15 -133 86 -133 q66 0 147 128 q20 -28 20 -50 q0 -97 -84 -176 q-61 -58 -125 -58 q-47 0 -85 48 q-65 83 -65 207 q0 106 52 313 q-117 -2 -178 -19 q-116 -31 -150 -55 q-4 -3 -6 -3 q-4 0 -9 4 q-2 2 -9 18 q-7 19 -6 21 q59 62 66 64 q4 1 5 2 l2 1 l2 -1 q6 -3 14 -28 l135 33 q150 22 151 23 l46 141 q7 20 64 140 Z" /><glyph glyph-name="u" unicode="u" d="M131 916 q14 4 22 4 q33 0 67 -33 q20 -20 20 -33 q0 -20 -49 -134 q-16 -37 -16 -130 q0 -181 52 -279 q22 -40 60 -66 q22 -14 38 -14 q39 0 113 55 q73 53 79 89 q1 2 12 176 q2 23 38 199 q65 175 69 180 q6 7 14 7 q7 0 15 -10 q8 -11 8 -17 q0 -3 -4 -10 q-31 -57 -54 -232 q-9 -63 -9 -68 q0 -3 2 -20 q1 -13 1 -40 l-4 -61 l4 -88 q34 -93 39 -110 q15 -47 58 -68 q15 -7 16 -7 l5 1 l47 13 l4 1 q9 0 15 -15 q0 -1 -14 -23 q-46 -75 -79 -75 q-71 0 -133 80 q-23 29 -29 60 l-18 89 q-1 2 -6 4 l-1 0 q-4 0 -11 -27 q-5 -20 -36 -66 q-15 -22 -28 -46 q-52 -90 -108 -90 q-76 0 -146 79 q-89 100 -89 272 q0 85 10 181 q10 93 24 125 q34 77 34 102 q0 15 -32 45 Z" /><glyph glyph-name="v" unicode="v" d="M86 1008 q9 0 16 0 q28 0 84 -36 q68 -43 82 -55.5 q14 -12.5 30 -44.5 q22 -44 92 -222 q45 -116 46 -183 q2 -125 29 -125 q22 0 80 110 l284 491 l20 35 l-39 1 q52 23 77 23 q45 0 45 -24 q0 -12 -32 -55 q-46 -62 -75 -124 l-154 -329 l-88 -186 q-17 -76 -27 -92 q-7 -10 -46 -42 l-66 -58 q-29 0 -77 58 q-24 29 -31 58 q-2 6 -33 303 q-5 41 -69 217 q-31 85 -87 201 q-24 51 -36 61 q-9 7 -25 18 Z" /><glyph glyph-name="w" unicode="w" d="M86 959 q11 4 17 4 q31 0 82 -52 q36 -36 58 -93 q71 -183 84 -245 q16 -74 39 -231 l184 399 q69 150 69 166 q0 3 -2 8 q-16 33 -16 38 q0 12 15 12 q15 0 43 -22 q25 -19 31 -40 l94 -350 l58 -225 l158 388 q40 98 83 158 q34 48 34 68 q0 12 -17 26 q30 6 49 6 q25 0 25 -18 q0 -16 -33 -70 q-57 -95 -74 -151 l-89 -291 l-48 -144 q-19 -94 -25 -109 q-33 -75 -85 -75 q-24 0 -42 23 q-12 14 -14 23 l-29 124 q-2 11 -17 52 q-7 23 -9 36 l-64 444 l-120 -354 l-22 -57 q-1 -28 -5 -38 q-4 -10 -24 -32 q3 -5 3 -8 q0 -2 -16 -33 l-21 -45 l-23 -38 q-15 -37 -21 -44 q-10 -10 -47 -20 l-1 -1 l-28 14 q-16 7 -17 9 q-1 2 -26 88 q0 1 6 26 q3 13 3 18 q0 17 -34 255 q-14 97 -51 203 q-35 96 -115 198 Z" /><glyph glyph-name="x" unicode="x" d="M132 961 l32 -2 q32 0 69 -38 l256 -263 l9 -13 l256 321 q18 23 30 23 q27 0 27 -25 q0 -7 -5 -15 l-214 -328 l-33 -39 l234 -238 q115 -116 112 -151 l-4 -49 l5 -26 q-1 -14 -8 -12 l-12 4 l-54 17 l-106 111 l-69 71 l-139 164 l-121 -158 q-65 -85 -78 -100 q-13 -15 -26 -22 q-19 -11 -40 -18 q-61 -23 -83 -40 q2 7 2 12 q0 6 -10 6 q-7 0 -18 -3 l36 77 l233 323 l25 31 l-238 304 l-68 76 Z" /><glyph glyph-name="y" unicode="y" d="M94 -259 q100 -14 130 -14 q61 0 129 38 q134 76 174 250 l74 315 l22 105 q-59 -49 -173 -151 q-55 -50 -113 -79 q-8 -4 -15 -4 q-15 0 -34 20 q-31 33 -31 77 q0 53 23 178 q23 125 23 234 q0 73 -34 99 q-7 5 -134 17 q-6 1 -6 8 q0 19 54 19 q111 0 168 -62 q44 -47 44 -119 q0 -31 -4 -69 q-18 -150 -18 -248 q0 -16 12 -33 l267 241 l125 298 q19 15 34 15 q28 0 26 -19 l-2 -18 l8 -62 q3 -22 -102 -158 q-25 -32 -76 -408 l-36 -263 q-24 -176 -119 -256 q-61 -52 -167 -52 q-162 0 -249 101 Z" /><glyph glyph-name="z" unicode="z" d="M791 748 q-103 46 -158 46 q-95 0 -225 -33 q-153 -38 -181 -73 q-2 -3 -18 -31 q-7 -12 -24 -12 q-37 0 -44 82 q32 10 72 27 q1 1 3 1 l26 -11 q3 -1 10 -1 q9 0 230 52 q71 16 159 16 q112 0 209 -43 q38 -18 38 -42 l0 -4 q0 -24 -124 -77 q-91 -39 -298 -221 q-73 -65 -173 -170 l216 19 l356 -25 q137 0 139 -3 q1 -3 1 -8 l-55 -55 q-51 -65 -61 -75.5 q-10 -10.5 -17 -10.5 q-13 0 -108 19 l-241 48 q-54 11 -111 11 q-29 0 -94 -6 q-32 -3 -34 -4 l-62 -41 q-31 -21 -59 -21 q-27 0 -45 40 q-18 41 -19 51 q0 2 1 4 l12 27 l538 419 l141 105 Z" /><glyph glyph-name="braceleft" unicode="{" d="M142 625 l0 38 q104 36 141 86 q33 45 33 130 q0 58 -21 168 q-16 86 -16 125 q0 117 74 198 q47 53 111 76 q33 12 105 24 l0 -25 q-113 -25 -160 -86 q-38 -49 -38 -143 q0 -36 19 -165 q9 -61 9 -110 q0 -108 -66 -190 q-34 -43 -156 -108 q102 -41 141 -82 q77 -81 77 -222 q0 -44 -19 -229 q-5 -54 -5 -79 q0 -97 87 -153 q45 -30 45 -44 q0 -13 -17 -13 q-37 0 -100 48 q-106 82 -106 217 q0 57 32 262 q7 43 7 87 q0 77 -40 120 q-35 38 -137 70 Z" /><glyph glyph-name="braceright" unicode="}" d="M570 627 q-112 -35 -145 -79 q-32 -43 -32 -113 q0 -43 28 -222 q10 -67 10 -124 q0 -92 -42 -150 q-48 -65 -105 -94 q-40 -22 -57 -22 q-17 0 -17 12 q0 15 44 44 q86 58 86 159 q0 28 -12 144 q-10 98 -10 160 q0 105 40 174 q25 42 61 69 q36 27 116 60 q-127 65 -166 120 q-56 79 -56 180 q0 49 23 201 q5 33 5 71 q0 102 -47 154 q-46 52 -151 75 l0 26 q105 -19 153 -47 q137 -82 137 -254 q0 -37 -16 -122 q-21 -112 -21 -171 q0 -91 42 -139 q34 -39 132 -75 l0 -37 Z" /><glyph glyph-name="uni4E0D" unicode="&#x4e0d;" d="M351 305 q-10 -21 -10 -36 q0 -27 28 -27 q23 0 118.5 67 q95.5 67 183.5 146 q195 174 257 318 q10 22 10 30 q0 6 -60 67 q-4 4 -3 18 q0 3 1 6 q40 -11 60 -23 q4 -2 6 -2 q29 0 37 69 q8 70 25 120 q3 8 3 12 q0 30 -27 30 q-7 0 -257 -61 q-94 -23 -296 -136 q-50 -28 -58 -28 q-12 0 -24 12 q-8 7 -26 66 q-22 39 -22 41 q0 11 45 64 q20 23 72 46 l5 2 l10 -6 l-8 -81 q258 94 311.5 111.5 q53.5 17.5 114.5 29.5 q79 16 314 58 q148 26 281 26 q107 0 259 -19 q113 -15 113 -67 q0 -17 -18 -32 q-21 -18 -50 -18 q-26 0 -116 33 q-29 11 -74 11 q-33 0 -350 -19 l-105 -18 l-41 -8 q31 -86 31 -100 q0 -89 -41 -176 q-13 -28 -12 -36 l4 -30 l71 -493 q8 -52 8 -90 q0 -105 -26 -206 q-20 -80 -50 -93 q-14 -6 -32 -6 q-59 0 -83 50 q-14 28 -14 58 q0 3 0 4 l44 417 l0 203 q-52 -92 -87 -139 q-11 -16 -201 -228 q-20 -30 -84 -73 l-106 -73 q-21 -14 -112 -34 q-62 34 -76 65 q-10 21 -10 46 q0 36 13 75 q9 26 54 57 ZM1150 632 l10 8 q66 -29 100 -43 q130 -55 166 -73.5 q36 -18.5 111 -69.5 q179 -121 213 -151 q36 -32 63 -125 l-4 4 q-38 -35 -46 -41 q-8 -6 -17 -6 q-80 0 -235 150 l-361 347 Z" /><glyph glyph-name="uni4E30" unicode="&#x4e30;" d="M1259 311 l-19 -4 l28 6 l-8 8 q19 1 26 1 q68 0 68 -41 q0 -27 -55 -71 q-81 -65 -197 -110 q85 3 127 5 q119 5 184 5 q48 0 103 -8 q136 -20 175 -20 q5 0 21 3 q79 14 85 14 q21 0 92 -35 q62 -31 62 -76 q0 -24 -20 -43 q-17 -16 -34 -16 q-17 0 -47 11 q-85 33 -336 55 q-285 24 -371 24 q-196 0 -445 -55 q-217 -47 -332 -102 q-4 -2 -5 -2 q-17 0 -39 52 q-21 34 -21 41 q0 9 13 20 q27 25 58 25 l7 -2 l5 -2 l-21 -25 q-4 -6 -4 -7 l5 -8 l1 -1 l1 -1 l1 1 l27 5 l458 115 q216 54 318 137 q28 22 89 101 ZM580 1106 q33 -32 42 -49 q14 -29 14 -102 q64 28 101 41 q27 11 36 21 q11 14 8 43 q0 5 -1 12 q-50 -27 -74 -27 q-28 0 -49 50 q14 -7 17 -7 q8 0 113 54 q12 6 12 39 q0 5 -1 20 q-47 -20 -82 -20 q-26 0 -62 40 q62 18 94 27 q37 10 49.5 19.5 q12.5 9.5 12.5 26.5 q0 21 -6 48 q29 -6 39 -14 q2 -2 29 -42 q48 -8 54 -12 q11 -9 11 -21 q0 -22 -59 -30 q-10 -33 -10 -39 q0 -8 47 -18 q12 -3 12 -22 q0 -14 -8 -22 q-2 -2 -46 -19 q-12 -5 -12 -39 q0 -14 6 -14 q2 0 31 14 q10 4 22 4 q37 0 37 -37 q0 -18 -13 -29 q-5 -4 -77 -24 q-6 -2 -6 -24 q0 -4 2 -27 q1 -17 -11 -57 q67 15 101 17 q37 3 37 13 q0 3 -8 32 q-4 17 -4 27 l24 407 l-16 22 q14 2 23 2 q25 0 43 -19 q13 -13 13 -34 l-3 -320 l5 -97 q5 -17 19 -17 q11 0 27 2 q41 3 124 6 q-13 27 -20 95 l-95 -15 q-14 0 -47 30 q65 18 102 23 q44 7 51 23 q5 10 5 40 q0 20 -9 20 l-58 -1 q-17 0 -53 12 q18 8 116 40 q5 2 8 7 q8 13 8 16 q-6 54 -11 54 q-3 0 -10 -4 q-12 -7 -25 -7 q-20 0 -79 17 q51 24 81 29 q47 9 47 32 q0 25 -30 54 q5 -10 9 -9 l15 3 l2 -1 q1 0 3 4 q0 1 -3 3 q-6 3 -12 11 q26 -4 37 -13 q2 -1 37 -64 q54 -4 58 -8 q14 -11 14 -29 q0 -9 -6 -13 q-1 -1 -58 -12 q-11 -2 -11 -28 q0 -12 3 -29 q34 1 51 6 q8 2 10 2 q27 0 38 -32 q0 -9 -7 -14 q-1 -1 -73 -17 q-18 -4 -18 -28 q0 -34 28 -34 q9 0 83 23 q10 3 18 3 q25 0 42 -19 q14 -15 14 -29 q0 -19 -17 -27 q-3 -2 -149 -14 q-13 -1 -11 -18 l1 -7 l6 -40 l8 -17 l-1 -12 l-1 -8 q115 -12 124 -18 q11 -7 17 -37 l2 -11 q-7 -29 -12 -36 q-5 -7 -19 -7 q-3 0 -10 2 q-22 7 -54 13 q-149 28 -231 28 q-54 0 -190 -18 q-101 -14 -199 -40 q-246 -68 -274 -86 q-4 -2 -5 -2 q-1 0 -18 8 q-4 1 -16 17 q-14 19 -14 40 q0 7 4 16 q2 4 45 26 q39 19 81 142 q25 75 25 107 q0 21 -4 53 ZM560 612 q416 129 673 129 q180 0 232 -25 q25 -12 25 -39 q0 -20 -24 -25 q-10 -9 -22 -11 q-18 0 -72 24 q-45 20 -130 20 q-272 0 -410 -44 l-329 -105 l-2 -2 q1 10 1 17 q0 16 -8 26 q-13 17 -12 20 l3 13 l-2 5 q2 7 25 8 q17 1 26 5 q20 8 27 8 q9 0 9 -7 q0 -1 -2 -4 q-5 -4 -8 -13 ZM591 811 q87 25 134 29 q44 4 42 14 l-13 75 q-1 5 12 20 q-57 -32 -82 -32 q-23 0 -52 39 l-41 -145 ZM727 229 q14 -44 23 -43 l80 13 q85 10 108 15.5 q23 5.5 76 28.5 q-55 -38 -84 -54 q-75 -43 -77 -44 q-106 -73 -130 -73 q-10 0 -17 6 q-5 4 -17 37 q-25 41 -25 46 q0 27 63 68 ZM713 509 l-2 13 q63 -40 79 -70 l37 -70 q5 -9 20 -9 q49 0 334 158 q-59 3 -90 3 q-86 0 -155 -24 q-38 -13 -58 -13 q-21 0 -47 38 q8 -8 12 -8 q7 0 7 6 q0 3 -6 6 q226 58 360 58 q116 0 158 -42 q15 -16 15 -32 q0 -17 -12 -29 q-20 -21 -128 -62 q34 -19 34 -33 q0 -16 -17 -33 q-17 -17 -33 -17 l-96 4 l-4 0 q-19 0 -97 -14 q-86 -16 -107 -24 q-116 -45 -141 -45 q-28 0 -47 50 q-10 24 -15 43 q-1 3 -3 97 l-9 54 l11 -5 ZM1472 1198 l2 0 q47 0 94 -38 q14 -11 22 -24 q41 -71 41 -170 q0 -99 -37 -177 q-21 -46 -54 -46 q-16 0 -32 18 q-19 20 -19 43 q0 4 1 13 q18 102 18 109 l-7 107 l-5 104 q-3 40 -30 56 l-1 1 l1 2 q3 2 6 2 Z" /><glyph glyph-name="uni4EAC" unicode="&#x4eac;" d="M189 1047 l6 10 l27 -9 l-20 -48 l460 135 l158 33 l473 45 q63 6 104 6 q39 0 360 -27 l75 2 q72 0 72 -27 q0 -5 -6 -14 q33 -6 40 -20 q1 -2 4 -33 l1 -11 q0 -14 -15 -12 l-85 12 l-114 16 l-46 15 q-6 0 -22 -8 l1 10 l-195 23 l-545 -19 q-67 -2 -230 -35 q-144 -28 -232 -64 q-151 -61 -169 -73 q-71 -45 -80 -45 q-7 0 -32 35 q-11 15 -12 54 q-18 31 -18 33 q0 17 23 17 q7 0 17 -1 ZM451 195 q58 71 89 105 q27 28 34 45 q12 30 24 30 q34 0 34 -48 q0 -10 0 -18 q46 40 71 54 q33 18 40 24 q7 6 11 6 q12 0 11 -14 l-51 -62 q-34 -41 -129 -173 q-61 -73 -70 -73 q-21 0 -33 20 q-7 10 -14 52 q-4 28 -17 52 ZM672 955 q76 -28 101 -59 q6 -7 81 -155 q1 -2 11 -5 l3 1 q9 5 34 8 q93 12 224 89 q8 5 69 107 l-159 -23 q-82 -7 -103 -15 q-43 -17 -49 -17 q-19 0 -56 31 q230 73 378 73 q119 0 179 -47 q24 -19 24 -36 q0 -7 -3 -18 l13 9 q3 -25 3 -29 q0 -28 -53 -58 q-82 -45 -82 -71 q0 -8 4 -10 q49 -22 55 -30 q9 -14 9 -35 q0 -18 -7 -21 q-6 -3 -22 -3 q-2 0 -87 2 l-6 0 q-13 0 -58 -8 q-45 -8 -135 -11 q44 -125 59 -190 q7 -32 15 -162 l8 -132 q-23 -61 -22 -65 l16 -81 q-21 -22 -65 -132 q-31 -79 -71 -79 q-8 0 -31 11 q-7 3 -72 69 l-79 39 l-3 6 l-4 3 l3 2 q9 4 16 17 q13 22 17 23 l106 50 q12 6 17 19 q43 105 43 467 q0 112 -34 123 q-5 2 -128 -42 q-8 -3 -12 -3 q-31 0 -73 52 q-47 60 -47 115 q0 22 15 103 q2 12 2 21 q0 32 -44 97 ZM856 1482 q76 4 100 4 q69 0 108 -26 q35 -24 60 -71 q21 -42 21 -72 q0 -24 -18 -41 q-13 -12 -29 -12 q-17 0 -49 16 q-15 8 -16 9 l-143 175 q-4 5 -34 18 ZM1285 428 l38 -11 l-18 30 q131 -53 176 -82 q19 -12 43 -55 l26 -47 l35 -62 q18 -32 18 -66 q0 -24 -41 -48 q-31 -20 -41 -20 q-55 0 -98 119 q-45 123 -64 155 q-17 29 -74 87 Z" /><glyph glyph-name="uni4F1A" unicode="&#x4f1a;" d="M714 1072 q41 -2 71 -2 q36 0 149 28 q91 22 157 22 q35 0 55 -21 q9 -10 9 -21 q0 -25 -100 -26 q-89 -2 -179 -10 q73 -22 90 -46 l29 -42 q261 -5 272 -8 q105 -29 141 -61 q37 -33 37 -96 q0 -147 -108 -248 q-53 -50 -89 -50 q-4 0 -13 1 q-39 7 -48 8 q-40 5 -49 29 q43 20 68 51 q-156 -6 -237 -19 q-83 -13 -276 -81 q-31 -11 -53 -11 q-39 0 -50 51 q-2 10 -3 146 q-1 61 -23 155 q22 -15 28 -23 q10 -12 26 -59 q5 -18 21 -51 q24 -52 28 -82 q11 -70 29 -70 q6 0 166 101 q6 4 6 22 q0 6 -1 13 l-1 16 q0 26 24 107 q9 33 9 62 q0 39 -21 39 q-5 0 -14 -3 q-31 -13 -130 -37 q-38 -10 -60 -20 q-1 -1 -2 -1 q-1 0 -2 1 q-12 6 -34 16 q81 39 118 46 l116 21 q18 4 18 18 q0 1 -2 4 q-3 5 -3 17 q1 45 -18 64 q-7 6 -8 6 l-68 -28 q-79 66 -81 66 q-3 0 -78 -71 q-7 -7 -176 -128 q-172 -97 -205.5 -113 q-33.5 -16 -60.5 -16 q-18 0 -35 20 q-18 20 -18 45 q0 8 5 17 q5 10 79 14 q28 1 132 65 q173 106 279 209 q28 27 191 207 q71 78 87 120 q22 60 32 60 q7 0 15 -9 q79 -80 115 -100 q147 -80 219 -108 q44 -17 279 -95 q271 -45 316 -59 q141 -44 141 -78 q0 -6 -7 -16 q-7 -9 -120 -49 l-34 -24 l-76 -13 q-70 -32 -85 -32 q-67 0 -235 81 q-82 40 -246 150 q-43 29 -92 81 l-155 167 q-4 2 -6 5 l-2 -3 q-5 -7 -7 -17 q-8 -36 -79 -117 q-114 -131 -167 -187 ZM795 382 q29 -55 35 -135 q56 20 100 20 q27 0 43 -21 q11 -14 11 -21 q0 -30 -50 -43 q-107 -26 -111 -44 q-1 -3 -1 -15 l4 -28 l0 -76 l120 28 q98 11 100 13 q8 9 9 27 q1 3 6 132 l3 64 l-17 159 q0 4 -4 8 q-13 14 -18 12 l-4 -2 q-119 -45 -121 -45 q-4 0 -12 10 l-2 3 q0 5 65 43 q34 20 62 20 q56 0 100 -49 q27 -29 38 -70 q13 -46 31 -216 q11 -99 11 -161 q0 -89 -59 -146 q-25 -25 -37 -25 q-11 0 -27 14 q-19 16 -33 43 q-18 34 -17 53 l3 67 l-216 -43 l-24 25 q-36 22 -41 30 q-14 21 -14 41 q0 8 4 26 l63 302 ZM838 739 l-17 -108 q-15 -3 -24 -3 q-50 0 -50 53 q0 46 27 105 q13 28 25 28 q6 0 34 -78 l5 3 ZM790 564 l7 0 l12 4 l6 2 l4 2 l3 0 l17 6 l2 0 l9 2 l6 0 l4 2 l5 3 l5 1 l5 0 l18 6 l4 0 l0 4 l-4 4 l-20 0 l-4 -1 l-6 -3 l-4 -2 l-3 0 l-5 -1 l-5 -3 l-9 -2 l-28 -14 l-8 -4 l-5 -2 l-5 -2 l-1 -1 l0 -1 ZM924 600 l234 38 q11 8 25 8 q18 0 66 -14 q51 78 80 148 q19 46 19 54 q0 23 -58 50 q-29 13 -48 26 q-25 15 -28 15 l-71 -5 l-143 -5 q-5 -8 -5 -26 q0 -13 10 -70 q3 -18 3 -30 q0 -30 -7 -76 q127 115 127 134 l0 2 q0 8 -17 20 q93 -6 93 -62 q0 -20 -14 -39 q-20 -27 -107 -71 q-65 -32 -159 -97 Z" /><glyph glyph-name="uni51C6" unicode="&#x51c6;" d="M860 1442 q21 -1 33 -14 q22 -21 22 -56 l0 -15 q-84 -393 -151 -486 q-37 -52 -39 -74 l50 -150 l5 -65 l0 -405 l15 -15 l5 0 q36 0 320 90 l25 35 l5 50 l0 60 q-89 -21 -235 -90 l-10 0 q-39 35 -40 90 l80 40 l10 -20 l195 70 l0 125 l-5 0 q-70 0 -205 -60 l-20 0 q0 -15 -10 -15 q-24 0 -60 105 q2 22 85 45 l15 -25 l195 45 l5 85 l0 70 q0 37 -25 50 l-30 0 q-46 0 -190 -80 l-15 0 q-26 10 -60 100 q20 10 55 10 l5 0 l5 -15 q358 108 439 108 l27 -1 q6 0 10 4 q6 6 74 14 q95 -26 95 -75 l0 -20 q-7 -13 -20 -19 l-5 -3 l-5 2 l-165 20 l-90 -5 l90 -105 l0 -90 l15 -5 l70 15 l0 -5 l5 5 q65 -11 65 -30 l0 -20 q0 -26 -20 -35 l-35 5 q-9 1 -15 1 q-66 0 -70 -31 l-5 -35 l10 -80 l120 10 l15 0 l35 10 l65 -45 l0 -5 q-17 -59 -70 -60 l-160 -5 q-10 -15 -20 -135 q-6 0 -15 -35 l5 -5 l270 15 l0 -5 l5 5 q215 -22 215 -90 q0 -40 -70 -50 l-315 35 l-65 0 q-262 0 -530 -85 q-70 -11 -70 -40 l0 -5 q0 -219 -70 -265 l-30 0 q-57 43 -88 86 l-3 4 l1 5 l85 820 l0 5 l-5 0 q-25 -56 -90 -105 l-20 0 q-60 77 -60 110 l0 25 q113 103 190 315 l130 355 l-5 25 l45 10 ZM1275 1162 l0 -35 q0 -37 -25 -55 l-15 0 q-75 0 -135 175 l-50 40 l0 5 q35 30 95 30 l10 0 q86 0 120 -160 ZM345 1052 q160 -36 160 -153 q0 -52 -43 -52 q-32 0 -142 115 q-55 39 -75 65 q1 6 14 11 q39 14 76 14 l10 0 ZM450 622 q15 -1 15 -20 q-85 -160 -200 -325 q-8 -35 -20 -35 l-10 0 q-37 28 -70 115 l75 100 l5 0 l15 -25 l190 190 Z" /><glyph glyph-name="uni5317" unicode="&#x5317;" d="M678 750 q-60 -22 -77 -24 l-137 -18 l-36 -5 l-67 48 q-50 31 -50 47 q0 1 18 60 q9 29 29 29 q25 0 51 -44 q89 37 137 46 q57 10 65 14 l50 24 q30 12 37 21 q7 9 6 32 l-2 38 l1 117 q-3 20 -55 66 q74 -18 96 -35 l47 -37 q43 -28 53 -43 q11 -18 12 -30 l10 -126 q10 -76 10 -92 q0 -56 -14 -146 l75 48 q-74 -49 -74 -85 q0 -17 12 -108 q2 -17 2 -26 q0 -223 -41 -308 q-26 -55 -101 -55 q-55 0 -78 25 q-7 7 -18 80 q-9 44 -9 45 q0 18 14 56 q15 43 20 132 q-78 -73 -150 -128 q-140 -107 -187 -107 q-16 0 -25 10 q-4 5 -15 30 q-22 50 -22 61 q0 25 20 25 q3 0 22 -26 q5 -6 12 -6 q22 0 63 23 l135 77 q117 75 136.5 90.5 q19.5 15.5 19.5 34.5 l-2 112 q0 17 7 58 ZM1005 800 q30 -23 49 -23 q4 0 16 4 l-14 10 q9 7 10 9 q3 6 5 49 l23 414 l12 46 q0 4 -11 13 q8 31 27 31 l4 0 q42 0 58 -9 q3 -1 27 -34 q46 -42 46 -51 q0 -6 -46 -34 q-15 -9 -22 -54 q-20 -125 -20 -222 q0 -6 0 -17 q1 -34 2 -103 q182 96 236 187 q80 136 80 152 q0 5 -4 19 l12 -6 l0 6 l0 3 q0 6 14 6 q24 0 40 -18 q16 -17 16 -37 q0 -52 -66 -182 q-70 -140 -139 -182 q-6 -4 -166 -92 q-14 -8 -14 -20 l3 -28 l6 -90 q44 -266 47 -272 q15 -27 82 -27 q11 0 147 4 q212 27 225 34 q17 10 18 36 l2 76 q0 12 24 54 q49 -92 79 -128 q11 -14 90 -66 q5 -4 5 -7 q0 -16 -30 -56 q-27 -36 -70 -47 q-174 -41 -236 -41 q-3 0 -156 11 q-159 12 -191 20 q-52 13 -96 94 q-50 92 -53 194 q-6 231 -13 242 l-32 49 q-14 21 -26 83 Z" /><glyph glyph-name="uni53D1" unicode="&#x53d1;" d="M504 1053 q56 -2 71 -13 l77 -63 l132 161 q50 88 50 92 q0 16 -20 16 q-16 0 -34 -11 q-134 -86 -161 -86 q-6 0 -15 11 q-8 10 -8 16 q0 16 38 23 q15 2 99 50 q45 25 91 25 q30 0 48 -19 q14 -15 14 -31 q0 -57 -59 -143 q-115 -168 -175 -237 q73 16 109 25 q85 21 136 21 q53 0 53 -43 q0 -107 -149 -225 q-102 -82 -137 -90 l-68 -17 q-28 -7 -42 -18 q-14 -11 -34 -45 q-53 -84 -75 -113 q71 37 127 63 q86 39 164 39 q69 0 114 -46 q26 -26 26 -55 q0 -19 -27 -195 q-13 -89 -54 -130 q-28 -28 -147 -110 q-52 -35 -60 -35 q-11 0 -23 13 q-16 19 -67 152 q64 -10 101 -10 q74 0 116 64 q18 27 39 92 q32 97 32 167 q0 26 -19 43 q-25 21 -58 21 q-67 0 -179 -64 q-73 -41 -114 -75 q-62 -51 -71 -51 q-19 0 -19 51 q0 23 55 77 q26 25 85 122 q25 41 25 61 q0 12 -2 28 q95 22 144 45 q71 33 169 128 q38 36 78 100 q-145 -23 -199 -68 q-19 -15 -25 -15 q-15 0 -43 47 q-94 -115 -163 -155 q-162 -94 -220 -94 q-46 0 -72 30 q-2 1 -3 6 l-36 40 l-7 41 l43 -11 q3 3 4 3 l2 0 q1 0 12 -6 q9 -6 18 -6 q25 0 122 46 q163 76 240 174 q15 19 14 23 l-23 73 l-8 44 q-4 16 -32 47 ZM855 -17 l9 14 l-4 15 q69 1 98 12 q14 5 119 50 l83 75 q-155 130 -163 141 q-17 23 -17 41 q0 52 104 126 l-20 -82 q65 30 98 49 q99 56 157 56 q18 0 36 -20 q31 -36 31 -84 q0 -25 -10 -50 l-59 -138 q226 -118 236 -125 q72 -51 98 -132 q10 -33 10 -36 q0 -33 -45 -33 q-36 0 -57 14 l-314 209 l-93 -84 q-45 -41 -83 -49 l-92 -20 l-4 -1 q-1 0 -3 1 q-32 12 -98 21 q1 3 1 4 q0 11 -18 26 ZM1007 848 l11 -2 l-1 13 q50 -39 50 -167 q0 -105 -46 -194 q-19 -37 -40 -37 q-20 0 -20 37 q0 21 26 95 q25 73 25 134 q0 20 -5 121 ZM978 1318 q58 -22 81 -35 q45 -26 113 -92 q20 54 34 83 q8 16 8 23 q0 9 -12 27 l34 2 l-14 17 q78 -16 78 -87 q0 -29 -15 -54 q-3 -6 -38 -55 q-4 -5 -4 -10 q0 -5 11 -20 q22 -32 36 -32 q7 0 114 89 q50 40 82 119 q40 -32 40 -58 q0 -55 -63 -126 q-29 -34 -51 -46 q-22 -12 -70 -22 q95 -96 202 -155 q104 -58 156 -73 l211 -60 q11 -3 62 -55 q32 -22 32 -24 q0 -6 -43 -30 q-55 -32 -59 -33 q-38 -14 -148 -14 q-88 0 -123 19 q-90 50 -184 132 q-128 112 -173 173 l-214 290 l-72 84 l-11 23 ZM1055 303 l172 -72 q31 61 47 91 q30 55 30 82 q0 31 -24 31 q-68 0 -225 -132 ZM1107 890 q4 0 22 -10 q4 -2 99 37 q9 3 15 3 q15 0 28 -15 q14 -16 14 -37 q0 -9 -3 -21 q-23 -107 -23 -147 q0 -17 15 -17 q20 0 79 28 q14 7 25 7 q24 0 45 -21 q14 -15 14 -29 q0 -27 -32 -56 q-43 -39 -114 -39 q-63 0 -79 18 q-8 10 -15 48 q-3 13 -3 14 l29 216 l-106 -30 q-9 0 -12 9 l-12 31 q-1 9 14 11 Z" /><glyph glyph-name="uni53F7" unicode="&#x53f7;" d="M212 745 l-9 -66 q385 169 587 169 q63 0 81 -27 q2 -3 2 -6 q0 -6 -5 -10 q-4 -4 -205 -4 q-22 -82 -32 -95 q-4 -6 -83 -103 q61 9 102 9 q46 0 84 -29 q66 -52 66 -121 q0 -33 -23 -129 q-20 -82 -66 -117 q-13 -9 -117 -43 q-91 -44 -97 -44 q-6 0 -44 67 l-37 48 q-6 8 -10 43 q6 -9 7 -9 l51 7 l105 -5 q7 0 34 21.5 q27 21.5 46 43.5 q70 79 70 156 q0 31 -27 53 q-36 29 -85 29 q-44 0 -92 -27 q-10 -6 -151 -102 q-5 -3 -10 -3 q-28 0 -28 27 q0 18 15 43 q7 12 85 49 q46 21 133 144 q21 30 66 86 q-109 -27 -184 -63 q-138 -65 -255 -132 q-11 -6 -21 -6 q-28 0 -28 39 q0 61 75 107 ZM580 1060 q110 55 130 83 l47 64 l-75 31 q-10 4 -27 29 q53 7 90 7 q55 0 92 -25 q46 -30 46 -72 q0 -8 -7 -21 q-1 -3 -84 -93 l19 -34 l0 -2 q-5 -28 -31 -45 q-14 -9 -18 -9 l-109 -10 l-124 -26 q-17 0 -42 30 q-33 40 -33 83 q0 31 15 111 q14 80 30 80 q8 0 23 -15 q34 -32 58 -166 ZM588 72 q23 -11 32 -11 q47 0 142 88 q80 73 124 182 q49 119 78 290 q15 91 15 168 q0 52 -49 102 q39 -5 54 -18 q8 -6 20 -30 l47 18 l-4 -18 q50 23 75 34 q19 8 21 11 q0 1 17 140 l15 -6 l-3 11 q41 -24 41 -70 q0 -20 -4 -56 q70 14 105 28 q69 29 99 29 q17 0 34 -18 q10 -11 10 -18 q0 -8 -9 -18.5 q-9 -10.5 -15 -10.5 l-38 1 l-98 -23 q-75 -16 -78 -23 q-7 -13 -7 -23 q0 -26 17 -51 q10 -14 28 -14 q14 0 209 48 q8 2 9 2 q11 0 24 -17 q6 -9 6 -10 q0 -1 -2 -4 q0 -2 -1 -5 q-4 -16 -99 -62 q-69 -34 -130 -34 q-56 0 -96 35 q-8 7 -39 109 q-106 -41 -120 -52 q-15 -15 -15 -60 q0 -22 3 -48 q4 -35 4 -37 q0 -106 -72 -330 q-41 -129 -84 -182 q-113 -142 -209 -142 q-39 0 -55 26 q-6 10 -5 21 l3 48 ZM900 82 q104 77 141 137 q19 33 54 152 q34 121 34 146 q0 18 -15 67 l13 -6 l-1 6 q71 -48 71 -88 q0 -123 -93 -269 q-43 -66 -91.5 -113.5 q-48.5 -47.5 -74.5 -47.5 q-12 0 -38 16 ZM925 1027 q23 -9 30 -9 q24 0 76 29 q29 16 93 39 q64 22 63 32 q-19 219 -24 241 q-7 34 -66 68 q42 9 73 9 q22 0 40 -9 l87 -44 q8 -4 73 25 q4 2 6 2 q21 0 35 -17 q14 -16 14 -28 q0 -1 -6 -12 l-115 -41 l-14 -79 q-9 -54 -15 -67.5 q-6 -13.5 -31 -42.5 q125 26 192 26 q151 0 223 -77 q44 -48 44 -91 q0 -42 -26 -73 q-6 -6 -10 -6 q-1 0 -79 11 q-50 7 -50 14 q0 10 19 26 q44 36 44 49 q0 36 -40 75 q-35 35 -105 35 q-210 0 -307 -47 q-121 -58 -146 -83 q-35 -33 -45 -33 q-33 0 -33 70 l0 8 ZM1837 332 q25 -15 32 -22 q13 -15 36 -71 q14 -33 68 -113 q17 -25 17 -42 q0 -30 -51 -72 q-81 -66 -225 -66 q-283 0 -347 54 q-18 15 -27 33 q-2 3 -51 306 l5 94 l18 179 l-82 -30 q-5 0 -12 10 q-6 11 -6 16 q0 3 4 8 q0 1 61 17 q56 29 67 29 q19 0 30 -16 q6 -8 6 -11 q0 -5 -8 -18 q-8 -14 -10 -51 q-1 -18 -6 -65 q-10 -88 -10 -166 q0 -132 62 -225 q17 -26 54 -26 q13 0 38 2 q19 2 43 2 q215 0 259 47 q21 23 24 96 q2 31 11 101 Z" /><glyph glyph-name="uni5907" unicode="&#x5907;" d="M571 1293 q73 -69 73 -114 q0 -47 -49 -198 q-13 -39 -60 -114 q-58 -107 -77 -136 q-14 -21 -14 -27 q0 -12 31 -17 l0 16 q76 -147 76 -203 q0 -4 -2 -21 q-12 -98 -15 -211 q-2 -116 -42 -116 q-7 0 -58 19 q-21 8 -34 35 q-13 29 -13 47 q0 5 41 160 q21 77 23 124 q2 60 4 69 q8 34 8 44 q0 8 -24 40 q-183 -235 -187 -238 q-18 -9 -43 -9 q-48 0 -75 30 q-49 56 -49 76 q0 19 94 82 q16 11 41 39 q113 123 221 283 q47 70 60 88 q87 123 87 193 q0 14 -17 59 ZM1013 895 q-72 -19 -107 -28 q-128 -32 -179 -58 q-49 -24 -82 -24 q-14 0 -22 13 q-4 6 -4 8 l11 33 q7 39 10 41 q6 4 94 34 l19 3 q2 0 6 -1 q15 -3 45 -4 q-48 -11 -70 -22 q-18 -10 -49 -40 q83 21 123 34 q75 24 99 27 q88 12 87 27 l-4 76 l14 122 l-181 -73 q-6 0 -10 9 q-10 24 -10 58 q0 22 43 28 q4 -21 7 -21 q2 0 3 1 q51 15 57 17 q99 20 108 43 q4 11 4 22 q0 14 -3 37 q-5 35 -10 105 q83 -32 104 -63 q6 -8 33 -87 l139 24 q23 5 28 7 q5 2 11 13 q17 29 35 77 q26 73 32 114 q3 16 22 16 q19 0 38 -15 q25 -20 25 -59 q0 -6 -27 -144 q42 -12 45 -15 q13 -12 13 -28 q0 -10 -6.5 -20.5 q-6.5 -10.5 -12.5 -10.5 l-67 5 l-74 -90 q-26 -32 -63 -51 q-93 -46 -124 -65 q246 32 393 32 q54 0 109 -8 q131 -18 138 -18 l52 1 q60 0 76 -35 q18 -41 18 -42 l-1 -2 q-4 -19 -39 -19 q-18 0 -218 41 l-101 5 l-130 11 q-380 -24 -390 -29 q-3 -2 -16 -39 q-3 -8 -43 -87 q-53 -105 -70 -128 q-82 -105 -186 -158 q-50 -25 -72 -25 q-23 0 -54 24 q-29 22 -29 38 l1 2 q0 1 1 2 q3 13 139 61 q107 38 272 298 ZM924 583 l57 -101 q64 28 97 37 q82 19 89 35 q2 3 18 128 l-14 33 q-3 8 -7 9 q-1 0 -2 1 q-2 -5 -35 -21 q-29 -13 -46 -13 q-8 0 -22 4 q101 81 160 103 q59 24 119 24 q92 0 140 -48 q31 -30 35 -72 l41 -474 q15 -174 15 -256 q0 -32 -20 -80 q-28 -76 -49 -95 q-21 -19 -43 -19 q-9 0 -16 7 l-68 79 q-10 11 -64 35 q27 34 39 44 l77 58 q7 5 7 32 l9 576 l4 135 q-2 19 -23 33 q-32 20 -62 20 q-75 0 -184 -56 q68 -28 72 -79 q8 -90 14 -91 q13 -5 90 -10 q38 -2 38 -23 q0 -12 -11 -20 q-6 -5 -95 -26 q-11 -3 -11 -30 l0 -2 q5 -22 4 -35 q-3 -59 8 -63 l1 0 q97 -14 100 -16 q12 -10 12 -30 q0 -18 -11 -24 q-2 -1 -88 -12 q-16 -2 -17 -19 q0 -7 10 -102 q1 -12 1 -22 q0 -80 -35 -104 q-8 -5 -35 -12.5 q-27 -7.5 -39 -7.5 q-17 0 -26 17 q-5 9 -12 227 l-145 -15 q-41 -167 -46 -176 q-21 -45 -71 -45 q-73 0 -83 17 q-10 17 -10 35 q0 29 9 45 l72 137 q20 38 39 109 q23 87 23 132 q0 28 -10 87 ZM1160 333 q2 52 5 77 q2 29 3 45 q1 20 -17 20 q-5 0 -49 -13 q-50 -15 -109 -21 q0 -7 0 -9 q0 -6 3 -19 q5 -22 7 -84 q2 -28 16 -28 q12 0 34 8 q34 14 107 24 ZM1138 990 q51 46 86 98 q57 84 57 91 q0 4 -5 4 q-88 0 -116 -11 q-18 -8 -18 -32 q0 -10 3 -65 q0 -6 0 -9 q0 -15 -7 -76 Z" /><glyph glyph-name="uni5931" unicode="&#x5931;" d="M326 152 q19 7 17 26 q0 2 -1 5 q14 -48 54 -48 q26 0 59 15 q26 12 94 28 q47 12 141 97 q129 117 199 292 q27 68 26 79 q-1 10 -15 16 q-1 0 -4 -2 q-15 -8 -77 -21 q-35 -6 -188 -70 q-57 -24 -204 -120 q-7 -4 -14 -4 q-39 0 -39 51 q0 31 14 51 q15 22 72 64 q6 5 30 14 l3 1 l8 -5 q7 -4 7 -16 q0 -5 -18 -31 q71 27 239 93 q68 27 128 41 q65 14 80 33 q15 18 13 74 q-1 35 -1 56 q0 28 13 112 q-38 -16 -55 -27 q-34 -22 -43 -22 q-10 0 -17 8 q-6 6 -5 10 l12 52 q1 47 6 52 q4 3 111 18 q2 0 30 230 l3 115 l1 41 q0 32 -30 60 q17 8 26 13 q4 3 6 3 l21 -8 q61 -37 76 -48 q20 -15 20 -32 q0 -37 -15 -80 l-42 -118 q-19 -55 -19 -102 q0 -34 21 -54 q14 -12 26 -12 q21 0 86 30 q34 16 66 16 q102 0 163 -56 q10 -9 10 -16 q0 -14 -14 -26 q-12 -11 -25 -11 q-11 0 -31 5 q-16 5 -109 14 q-36 3 -68 3 q-96 0 -117 -26 q-9 -10 -23 -172 q0 -5 26 -53 q20 -37 48 -37 q30 0 100 14 q30 6 51 6 q64 0 159 -20 q40 -9 118 -12 q34 -1 55 -25 q17 -20 17 -38 q0 -12 -12 -24 q-12 -12 -24 -12 q-28 0 -126 34 q-64 22 -211 22 q-44 1 -60 2 q-15 2 -21 2 q-37 0 -37 -22 q0 -3 4 -10 q5 -11 22 -42 q157 -301 315 -397 q35 -22 489 -225 q22 -19 34 -26 q22 -14 22 -20 q0 -9 -15 -16 l-40 -10 l-44 -16 l-174 -15 l-155 -16 l-93 26 q-100 27 -121 44 q-70 57 -168 190 q-56 74 -122 239 l-34 88 q-12 30 -24 60 q-31 -126 -80 -205 q-48 -78 -134 -160 q-68 -64 -107 -91 q-39 -27 -84 -40 q-73 -21 -191 -21 q-101 0 -129 36 q-7 9 -10 57 q0 2 -10 55 q-1 5 -1 8 q0 8 9 8 q14 0 51 -29 ZM741 1399 l64 -5 q27 0 56 -39 q19 -26 19 -53 q0 -42 -30.5 -133 q-30.5 -91 -69.5 -166 q-84 -160 -195 -234 q-26 -18 -66 -18 q-36 0 -61 27 q-20 22 -20 50 q0 33 54 71 q80 57 189 256 q73 131 73 196 l0 3 q0 10 -13 45 Z" /><glyph glyph-name="uni5B50" unicode="&#x5b50;" d="M360 728 l-41 -95 l438 127 q280 47 281 49 q3 6 3 12 q0 2 -10 50 q-27 123 -34 127 l-56 33 q-29 18 -29 36 q0 12 26 12 q1 0 88 -7 q1 0 2 0 q51 0 131 67 q72 60 72 84 q0 7 -10 12 q-11 5 -51 10 q-101 14 -149 14 q-108 0 -261 -53 q-109 -39 -143 -77 q-42 -49 -54 -49 q-13 0 -23 13 q-4 5 -9 27 q-8 41 -8 51 q0 15 12 23 q3 1 118 29 q157 47 192 54 q110 22 272 22 q209 0 209 -89 q0 -64 -75 -123 q-63 -50 -197 -60 q20 -32 31 -49 q48 -75 66 -147 q3 -10 7 -13 q1 -1 29 -1 l529 -8 q50 0 80 -31 q17 -17 17 -41 q0 -26 -18 -43 q-16 -14 -40 -14 q-7 0 -86 32 l-1 0 q-35 0 -122 12 q-68 9 -112 9 q-9 0 -29 -1 q-79 -3 -119 -3 q-26 0 -44 3 q-20 4 -28 4 q-11 0 -20 -8 q-14 -12 -14 -30 q0 -23 11 -64 q18 -62 18 -176 q0 -231 -58 -348 q-38 -77 -82 -120 q-3 -3 -67 -23 q-97 -64 -115 -64 q-29 0 -64 70 q-20 41 -49 74 q-55 64 -55 72 q0 11 15 13 q16 -8 29 -8 q135 0 183 57 q32 39 58 126 q26 87 35 186 q4 53 5 238 l-97 -3 q-44 -1 -127 -23 q-266 -71 -334 -87 q-70 -18 -101 -39 q-86 -58 -113 -58 q-9 0 -22 13 q-29 30 -29 79 q0 21 20 41 q33 44 40 49 q24 15 79 25 Z" /><glyph glyph-name="uni5EA6" unicode="&#x5ea6;" d="M267 331 q-38 -39 -54 -64 q-16 -25 -37 -79 q72 30 114 71 q98 96 158 205 q60 109 111 284 q48 164 59 321 l-1 11 q64 -61 64 -104 q0 -134 -89 -441 q-35 -118 -63 -162 l-52 -81 q-49 -83 -62 -101.5 q-13 -18.5 -44 -45.5 q-43 -40 -62.5 -52 q-19.5 -12 -53.5 -20 q-81 -19 -108 -19 q-17 0 -26 8 q-4 4 -7 29 q-9 42 -9 52 q0 33 28 63 q78 84 134 125 ZM710 1223 l461 119 l82 11 l348 10 q106 3 119 3 q76 0 76 -49 q0 -17 -15 -30 q-18 -14 -37 -14 q-24 0 -81 14 q-51 13 -160 13 q-280 0 -542 -71 q-178 -47 -442 -160 q-117 -50 -143 -71 q-39 -31 -56 -31 q-22 0 -53 29 q-25 25 -25 48 q0 10 6 15 q1 1 56 2 l406 162 ZM542 136 q24 -50 57 -50 q23 0 98 12.5 q75 12.5 108 21.5 q44 12 174 87 q103 59 105 68 q1 7 1 13 q0 30 -49 145 q-13 30 -28 30 q-5 0 -12 -1 q2 4 2 6 q0 11 -13 11 q-10 0 -40 -18 q-68 -39 -84 -55 l-58 -58 q-6 -6 -13 -6 q-25 0 -33 45 q-6 35 -16 58 q-1 1 -1 4 q0 29 106 43 q70 42 106 61 q201 102 420 102 q68 0 68 -20 q0 -9 -37 -119 q-26 -76 -52 -115 q-50 -76 -50 -88 q0 -14 28 -34 q150 -104 219 -123 l310 -84 q24 -6 52 -32 q63 -59 63 -65 q0 -32 -46 -54 q-49 -23 -118 -41 q-150 -40 -262 -40 q-34 0 -111 57 q-147 109 -176.5 134 q-29.5 25 -59.5 63 q-48 62 -58 62 q-23 0 -69 -42 q-42 -39 -194 -99 q-129 -51 -246 -51 q-129 0 -129 95 q0 41 38 77 ZM1319 607 l-145 -29 q-91 -35 -101 -41 q-9 -6 -12 -12 q-2 -3 -1 -4 l30 -16 l118 -120 q76 72 100 122 q36 73 36 76 q0 20 -25 24 ZM898 1148 q30 2 52 2 q56 0 111 -29 q11 -6 12 -8 l39 -80 l90 23 q114 26 115 29 q7 12 7 28 q0 47 -31 54 q-37 9 -39 11 q-3 4 -3 5 l2 4 q9 25 63 25 q48 0 89 -38 q22 -20 24 -83 q73 5 123 5 q81 0 81 -34 q0 -17 -15 -27 q-12 -7 -19 -7 l-160 -6 q-83 -202 -90 -212 q-20 -31 -47 -43 q-4 -1 -130 -34 q-138 -65 -154 -65 q-31 0 -58 41 q-27 42 -27 69 q0 11 13 56 q8 25 12 74 q-93 -40 -192 -106 q-7 -5 -11 -5 q-8 0 -21 17 q-24 30 -24 56 q0 26 31 42 q38 19 39 19 q2 0 6 -3 q10 -5 11 -5 q146 54 161 60 q16 7 19 10 q3 3 4 16 q1 12 1 25 q0 38 -12 60 q-14 27 -72 54 ZM1111 831 q43 28 65 42 q45 28 59 42 q26 27 54 95 q-54 -13 -82 -19 q-64 -14 -74 -24 q-2 -2 -10 -77 q-3 -33 -12 -59 ZM981 1589 q41 4 149 -80 q54 -42 54 -70 q0 -28 -28 -53 q-26 -23 -57 -23 q-15 0 -27 11 q-2 1 -75 121 l-56 72 q5 18 40 22 Z" /><glyph glyph-name="uni601D" unicode="&#x601d;" d="M506 461 q-60 -142 -124 -222 q-15 -19 -19 -31 q-8 -27 -16 -31 l-9 -5 l-4 2 q-15 6 -20 13 q-4 6 -18 60 l-7 24 q0 11 60 78 l37 60 l37 31 l3 -47 l1 0 l2 1 l27 25 q19 15 35 29 l15 13 ZM474 1142 q42 -13 56 -33 l66 -102 l3 5 q25 -12 35 -12 q19 0 69 25 q18 9 75 28 q33 10 33 32 q0 15 -12 91 q-6 38 -15 45 q-8 6 -16 12 l20 2 q3 2 3 4 q0 4 -4 10 q112 -11 142 -45 q10 -12 30 -86 l135 21 q80 -28 87 -35 q9 -9 9 -25 q0 -20 -21 -32 q-11 -6 -154 -8 q-27 -1 -36 -9 q-2 -2 -5 -82 l-11 -102 l93 7 q19 0 56 -24 q11 -37 29 -37 q21 0 60 45 q53 62 109 204 q39 96 39 167 q0 61 -46 101 q-50 45 -136 45 q-77 0 -226 -29 q-51 -10 -118 -38 l-79 -33 q-14 -5 -31 -5 q-23 0 -46 20 q69 54 124 74 q168 65 343 65 q162 0 246 -99 q74 -86 74 -169 q0 -56 -59 -251 q-37 -120 -75 -170 q-39 -52 -157 -106 q-11 16 -65 64 q-29 71 -31 73 q-7 5 -18 5 q-23 0 -54 -7 l-382 -83 l-14 -3 q-1 0 -14 5 l-16 41 l-62 89 l6 210 l-38 117 l-1 18 ZM793 966 q-62 -19 -90 -38 q-30 -22 -41 -21 l-41 3 l-11 -8 q15 -103 17 -110 q3 -19 16 -19 q42 0 104 47 q35 27 42 88 q1 13 3 37 l1 21 ZM587 482 q71 -142 192 -210 q277 -157 679 -175 l-105 250 l34 -19 l-10 26 q66 -45 86 -65 l117 -114 q72 -56 80 -68 q9 -15 9 -25 q0 -18 -18 -36 q-36 -35 -102.5 -56 q-66.5 -21 -141.5 -21 q-142 0 -307 47 q-300 85 -459 293 q-64 84 -64 119 q0 3 2 11 l8 43 ZM880 530 l0 22 q21 -22 27 -25 l66 -26 l69 -38 l90 36 l-25 -81 q70 -90 70 -101 q0 -35 -43 -35 q-28 0 -86 12 q-51 11 -93 62 q-36 44 -66 92 q-8 13 -15 22 q-23 35 -23 56 q0 16 8 17 l1 1 l1 1 l1 -1 q1 -1 5 -3 q5 -2 13 -11 ZM1281 594 q83 29 128 29 q95 0 175 -78 q26 -26 26 -47 q0 -21 -18 -35 q-18 -14 -43 -14 q-12 0 -47 12 q-33 3 -44.5 8 q-11.5 5 -45.5 33 q-69 56 -121 82 l34 0 l-44 10 Z" /><glyph glyph-name="uni607A" unicode="&#x607a;" d="M403 735 q33 -78 33 -117 q0 -45 -28 -129 q-23 -68 -54 -68 q-10 0 -14 5 q-11 14 -31 103 q0 11 48 83 q19 29 37 91 q3 11 9 32 ZM542 1225 q32 -16 37 -24 l37 -50 l17 -24 l-3 -33 l-23 -545 q-8 -178 -8 -326 q0 -56 1 -82 q1 -10 1 -13 q0 -58 -45 -58 q-21 0 -37 19 q-39 46 -39 134 q0 11 0 17 l82 939 l-20 46 ZM623 831 q66 -25 106 -68 q69 -73 86 -120 q33 -87 33 -124 q0 -39 -44 -39 q-26 0 -42 21 q-34 43 -52 109 l-22 84 q-9 33 -51 111 l-14 26 ZM872 90 l-41 -38 q328 78 517 78 q5 0 51 -2 q91 -4 175 -4 q140 0 197 -20 q39 -13 50 -13 l39 1 q66 -36 71 -41 q15 -14 15 -37 q0 -20 -14 -38 q-11 -15 -28 -15 q-42 0 -110 28 q-91 36 -339 57 q-183 16 -238 16 q-210 0 -379 -81 q-39 -19 -48 -19 q-31 0 -31 56 q0 37 17 48 q18 12 96 24 ZM867 819 l4 0 q9 0 26 -33 q3 -5 10 -5 q16 0 43 16 q31 19 160 36 q26 4 70 13 q128 29 193 29 q31 0 228 -59 q-119 12 -268 12 q-108 0 -288 -49 q-112 -31 -157 -56 q-6 -3 -8 -3 q-20 0 -27 39 l-15 32 q-2 8 9 19 q8 9 20 9 ZM1039 1190 q37 -22 37 -45 q0 -42 -61 -140 q61 23 93 31 q82 21 89 27 q12 9 11 52 q-1 39 12 137 q4 31 4 55 q0 28 -9 43 q-12 19 -47 40 l22 4 q85 -7 126 -45 q42 -38 40 -76 l-9 -175 l100 9 q23 0 60 -39 l17 95 l0 4 q0 35 -43 97 q102 -38 127 -85 q23 -43 23 -101 q0 -76 -34 -107 q-20 -18 -41 -18 q-38 0 -54 86 q-165 -19 -215 -26 q-180 -26 -338 -110 q-10 -5 -16 -5 q-13 0 -22 17 q-11 18 -11 43 q0 18 6 39 q2 7 105 111 q29 29 29 60 q0 9 -1 22 ZM1002 334 q28 -39 30 -88 l100 60 q-38 -43 -51 -69 q-31 -60 -44.5 -78 q-13.5 -18 -26.5 -18 q-6 0 -10 3 q-35 24 -35 89 q0 42 37 101 ZM1009 689 q54 -43 63 -83 q20 -76 22 -78 q0 -1 2 -3 q21 10 23 10 q7 -1 22 -7 q7 -3 9 -3 q15 0 114 57 q61 35 117 79 q-87 -2 -220 -19 q-17 -2 -29 -2 q-29 0 -61 29 q228 73 344 73 q76 0 110 -32 q19 -19 19 -37 q0 -37 -73 -105 q6 -26 6 -47 q0 -22 -21 -34 q-6 -3 -152 -37 q-230 -59 -250 -59 q-21 0 -34 17 q-2 3 -15 73 q-3 21 -3 23 l1 4 l6 181 ZM1134 131 q136 49 218 112 q138 107 138 138 q0 17 -56 26 q106 -5 132 -32 q14 -16 14 -40 q0 -51 -79 -95 q-92 -53 -189 -88 q-56 -21 -160 -21 q-2 0 -18 0 Z" /><glyph glyph-name="uni624B" unicode="&#x624b;" d="M410 640 l-30 -72 q289 111 392 127 q187 29 218.5 35.5 q31.5 6.5 31.5 14.5 q0 1 0 4 q-3 32 -3 94 q2 96 -8 96 q-5 0 -184 -53 q-112 -33 -163 -63 q-69 -40 -87 -40 q-11 0 -32 37 q-23 34 -23 39 q0 12 26 31 q58 43 127 52 q10 1 14 3 q1 0 2 0 q9 0 9 -13 q0 -11 -22 -37 q134 48 189 58 q131 26 142 35 q10 9 10 28 q0 31 -41 102 l11 -7 l-1 9 l14 -8 l-21 33 q45 -19 58 -39 q2 -3 40 -96 q3 -8 15 -7 q2 0 133 24 q34 6 78 6 q141 0 141 -55 q0 -9 0 -19 q-146 22 -205 22 q-45 0 -89 -13 q-37 -11 -46 -12 q-24 -3 -24 -25 q0 -19 12 -83 q3 -20 4 -47 q2 -53 31 -53 q19 0 57 12 q37 11 120 11 q41 0 77 -3 q58 -6 65 -6 l103 4 l130 -16 q1 0 8 2 q21 7 23 6 q73 -31 81 -38 q14 -12 14 -29 q0 -13 -12.5 -24.5 q-12.5 -11.5 -25.5 -11.5 q-7 0 -97 28 q-14 5 -101 9 q-68 3 -158 17 q-47 8 -57 7 q-163 -9 -166 -10 q-2 -2 -4 -2 q-1 0 -4 2 q-5 2 -10 2 q-45 0 -53 -12 q-6 -10 -6 -23 l15 -427 l2 -25 q0 -2 -26 -187 l-36 -61 q-21 -65 -43 -79 q-10 -7 -30 -9 q-32 2 -74 36 q-35 43 -55 52 l-53 25 q-12 5 -34 45 l8 -3 l-1 18 l29 -16 l-11 21 q30 -3 48 -3 q59 0 89 44 q44 67 62 380 l10 199 q-254 -43 -300 -59 q-281 -99 -314 -120 q-31 -20 -43 -20 q-5 0 -11 4 q-3 2 -27 44 q-18 26 -18 31 q0 8 19 17 q56 27 91 60 ZM1176 1482 q89 -18 89 -65 q0 -15 -95 -103 q-99 -92 -282 -159 q-17 -6 -114 -18 l-75 -9 q-12 1 -29 14 l100 53 l147 65 q51 22 124 72 q49 34 78 67 q29 33 43 43 q3 2 3 3 q0 1 -3 3 l-42 43 l69 -17 l-13 8 Z" /><glyph glyph-name="uni62C5" unicode="&#x62c5;" d="M229 896 q9 -57 29 -57 q16 0 70 34 q64 41 103 55 q119 43 123 53 q0 1 18 147 q19 158 19 176 q0 8 -60 56 q-2 1 -2 4 q0 12 16 12 q40 0 76 -26 q32 -23 32 -76 q0 -49 -20 -129 q-16 -60 -16 -101 q0 -35 24 -35 q10 0 23 5 q10 -2 17 -2 q5 0 44 11 q8 2 16 2 q39 0 51 -31 q2 -6 2 -13 q0 -4 -3 -8 q-4 -4 -147 -35 q-14 -3 -14 -38 q0 -11 1 -29 q5 -59 5 -144 q0 -26 12 -26 q6 0 37 15 q57 27 129 40 l-177 -114 l22 -381 l1 -5 l-1 -2 q-83 -219 -90 -228 q-5 -6 -30 -13 l-6 -2 q-2 0 -7 3 q-1 0 -3 1 q-1 1 -82 80 q-14 13 -32 24 q-31 19 -37 29 q-2 4 -4 6 l-2 2 l2 3 q7 12 11 15 q3 2 133 63 l6 198 l7 149 l-1 2 l-57 -37 l-63 -41 q-37 -24 -75 -43 q-25 -13 -50 -27 q-35 -20 -39 -20 q-11 0 -19 9 q-3 2 -15 39 q-11 32 -11 33 q0 12 25 39 q24 -23 41 -23 q19 0 72 39 q61 45 104 59 q83 27 86 39 q1 0 14 126 q12 115 12 126 q0 12 -10 13 q-3 0 -36 -15 q-229 -115 -247 -137 q-32 -39 -42 -39 q-9 0 -18 7 q-5 3 -19 54 l-6 16 q-4 8 -6 15 q-2 7 -3 8 l-1 1 l1 1 l1 2 l66 66 ZM794 946 q12 7 63 20 q27 7 27 21 q0 8 -9 25 q-5 9 -5 14 q0 15 11 31.5 q11 16.5 71 94.5 q157 257 159 289 q2 33 7 43 q67 -42 70 -47 q9 -14 9 -29 q0 -35 -108 -213 q-41 -68 -89 -122 q-38 -42 -79 -91 q77 29 159 97 q111 92 153.5 134.5 q42.5 42.5 90.5 109.5 l-68 -16 l-2 0 q-18 0 -55 22 q56 11 83 22 q64 25 89 25 q22 0 41 -21 q15 -17 15 -36 q0 -18 -11 -30 q-32 -37 -177 -140 q-42 -30 -114 -100 q248 77 423 77 q41 0 63 -25 q14 -15 14 -31 q0 -24 -23 -24 q-2 0 -122 20 q-19 3 -32 3 q-105 0 -233 -46 q-165 -60 -204 -69 q-30 -6 -43 -21 q-2 -2 -2 -3 q0 -1 43 -56 q16 -20 16 -44 q0 -48 -18 -113 l-52 -189 q-111 -332 -125 -370 q-59 -165 -186 -277 q-70 -62 -110 -62 q-34 0 -50 31 q-10 20 -10 50 q0 19 8 26 q1 1 46 5 q28 2 113 105 q75 90 118 178 q133 264 198 539 q24 104 24 129 q0 20 -12 35 q-7 10 -12 10 l-2 -1 q-83 -62 -123 -62 q-30 0 -38 82 ZM868 954 l10 0 l4 2 l6 2 l8 3 l17 9 l8 2 l6 3 l4 2 l4 0 l0 3 l-7 0 l-16 -6 l-4 0 l-8 -3 l-3 0 l-8 -3 l-6 0 l-5 -6 l-5 -2 l-3 -2 l-2 -4 ZM939 245 q-1 27 -12 38 q-16 15 -16 20 q0 1 36 31 q32 27 44 27 q23 0 24 -16 q1 -11 -23 -27 q-2 -1 -2 -2 q3 -4 11 -6 q2 0 7 3 q37 26 175 64 q72 20 238 50 q176 33 195 33 q312 0 353 -21 q20 -11 19 -24 q-6 -58 -8 -61 q-2 -2 -27 -4 l-6 -1 l-8 1 l-453 22 l-10 1 l-2 0 q-41 0 -110 -16 q-79 -17 -202 -37 q-17 -3 -223 -75 ZM1012 628 q27 -12 37 -12 q20 0 67 24 q53 28 184 59 q128 30 212 30 q29 0 42 -18 q8 -14 7 -19 q-6 -18 -12 -22 q-9 -5 -337 -37 l-197 -69 q-4 0 -5 3 q-1 1 -4 17 q-3 16 -3 17 q3 15 3 18 q0 3 -5 4 q-1 2 1 1 l10 4 ZM1019 486 q2 0 7 -2 q25 -12 30 -11 l300 84 q130 14 146 14 q35 0 49 -22 q8 -12 8 -17 q0 -6 -12.5 -16 q-12.5 -10 -18.5 -10 l-151 10 q-14 1 -80 -18 q-40 -11 -110 -22 q-110 -18 -157 -49 l-3 -2 q-10 4 -10 7 q-6 26 -9 30 q-6 6 -6 9 q0 3 6.5 9 q6.5 6 10.5 6 ZM1040 203 l68 -39 q20 -11 31 -50 q28 -99 42 -105 q4 -2 14 -2 l146 45 l81 13 q3 3 16 36 q7 18 7 35 q0 50 -60 50 q-25 0 -54 -10 q-149 -49 -154 -49 q-2 0 -3 -1 l-1 -1 l-2 1 l-12 5 q-16 21 -16 23 l2 4 l1 2 q3 7 141 56 q82 30 128 30 q92 0 134 -42 q30 -30 30 -121 q0 -104 -43 -136 q-4 -3 -82 -43 q-59 -31 -78 -31 q-18 0 -32 19 q-5 7 -17 74 q-1 7 -12 7 q-4 0 -10 -2 q-30 -12 -50 -14 q-81 -8 -85 -11 l-25 -19 q-3 -2 -6 -2 q-22 0 -45 30 q-6 7 -49 196 l-13 45 q2 5 8 7 ZM1159 945 q21 0 21 -40 q0 -106 -38 -187 q-13 -28 -38 -28 q-13 0 -24 11 q-19 20 -17 57 q1 12 48 97 q42 90 48 90 ZM1240 846 q132 -20 132 -88 q0 -26 -23 -44 q-15 -11 -30 -11 q-38 0 -39 19 q0 7 7 25 q7 18 12 23 q1 1 1 2 l-2 2 q-21 15 -58 72 ZM1329 993 q83 -12 124 -37 q61 -38 89 -67 q21 -21 21 -49 q0 -36 -32 -36 q-18 0 -35 15 q-6 5 -101 125 q-11 14 -66 49 Z" /><glyph glyph-name="uni673A" unicode="&#x673a;" d="M274 810 l5 -45 q62 34 91 51 q76 46 99 56 q94 43 104 61 q4 7 11 160 q2 26 26 130 q1 4 1 5 q0 24 -56 38 l29 5 q14 2 22 2 q24 0 42 -15 q16 -13 15 -23 l-16 -139 l0 -107 l3 -43 l77 8 q20 -16 20 -28 q0 -18 -14 -29 q-4 -3 -76 -18 q-9 -1 -16 -40 l-1 -6 q0 -1 1 -5 q5 -16 5 -118 q0 -6 -4 -21 q-7 -25 -7 -36 q0 -17 14 -22 l67 -23 q50 -17 123 -104 q-1 9 -1 18 q0 20 24 34 q85 46 92 51 q-8 -23 -8 -29 q0 -11 9 -11 q10 0 20 11 q9 11 9 20 q0 5 -3 14 q-3 12 -3 23 q0 11 2 28 l-11 -19 q-3 9 -3 14 q0 14 26 31 l-6 9 q45 -12 51 -42 q6 -23 6 -61 q71 30 105 38 l101 22 q15 3 15 19 q0 6 -15 49 q-25 68 -61 267 q-36 198 -36 326 q0 35 6 79 q3 28 3 45 q0 23 -24 63 l21 -5 l0 12 q87 -36 87 -58 q0 -2 -36 -52 q-10 -13 -10 -41 q0 -119 13 -214 q3 -19 39 -166 q6 27 10 33 q6 11 63 72 q34 36 81 135 q38 81 38 105 q0 3 -3 16 l9 6 q52 -41 52 -78 q0 -37 -157 -242 q61 27 92 43 q45 23 66 23 q31 0 31 -32 q0 -18 -71 -127 l16 4 q58 -30 87 -45 q82 -42 82 -70 q0 -29 -44 -33 q-32 3 -69 45 l-60 -60 q62 -6 82 -24 q7 -8 27 -57 q79 -22 82 -27 q5 -6 5 -13 q0 -27 -30 -27 l-112 21 l-6 0 q-163 0 -163 -18 q0 -8 11 -31 q4 -7 32 -79 q18 -46 63 -132 q54 92 57 171 l15 0 q6 7 8 7 q5 0 15 -11 q15 -16 15 -40 q0 -16 -60 -205 q-1 -3 -1 -5 q0 -16 53 -92 q49 -70 153 -181 q81 -87 118 -87 q39 0 110 74 q14 -73 29 -109 q33 -79 33 -112 q0 -19 -20 -37 q-22 -21 -55 -21 q-73 0 -183 82 q-73 53 -184 190 q-72 89 -86 120 q-27 57 -40 57 q-9 0 -20 -8 q-97 -69 -101 -70 q-89 -21 -111 -21 q-82 0 -100 133 l12 -4 l-5 9 q50 -28 58 -28 q1 0 96 23 q72 18 108 61 q11 14 9 18 l-51 138 q-62 183 -65 185 q-9 9 -18 9 q-34 0 -92 -31 q-25 -13 -57 -24 q-44 -15 -53 -28 q-7 -11 -7 -59 q-1 -21 -6 -61 q146 -43 180 -78 q16 -17 16 -34 q0 -16 -17.5 -31.5 q-17.5 -15.5 -35.5 -15.5 q-7 0 -16 6 q-1 1 -60 68 l-49 25 l-21 7 q-13 -87 -26 -117 q-53 -129 -60 -140 q-51 -81 -153 -81 q-48 0 -64 23 q-5 9 -13 31 q-16 48 -16 58 l0 5 l0 3 q0 5 8 10 l3 2 l2 -2 q6 -7 18 -16 l0 12 q29 -9 48 -9 q41 0 84 74 q39 67 61 117 q25 56 42 170 q-49 -20 -70 -35 q-26 -19 -33 -19 q-19 0 -29 38 q-22 -58 -66 -58 q-29 0 -57 22 q-27 22 -39 59 q-12 36 -45 56 l6 -465 q1 -73 -35 -107 q-23 -21 -49 -21 q-49 0 -49 72 q0 7 11 138 q9 114 12 227 q-28 -23 -103 -104 q-24 -26 -59 -26 l-52 1 l-43 -2 q-64 0 -64 103 q0 54 16 53 l1 0 q23 -16 44 -16 q32 0 121 96 q126 136 153 214 q23 66 23 105 q0 20 -19 20 q-34 0 -153 -84 q-115 -82 -137 -124 q-16 -30 -23 -30 q-11 0 -18 12 q-7 10 -7 18 l0 57 q0 35 9 48 q15 19 58 45 ZM1017 1312 q14 2 23 2 q25 0 41 -18 q14 -15 14 -35 q0 -41 -76 -132 q-9 -11 -55 -68 q-21 -27 -66 -81 q127 66 169 66 q30 0 30 -32 q0 -36 -64 -101 q103 -26 134 -62 q35 -39 35 -93 q0 -41 -25 -66 q-15 -15 -37 -15 q-15 0 -27 9 q-3 3 -58 70 q-2 2 -5 2 q-1 0 -178 -78 q-13 -6 -26 -6 q-20 0 -35 16 q-13 15 -13 33 q0 19 12.5 36 q12.5 17 87.5 100 q86 97 115 137 q-70 -39 -105 -59 q-64 -37 -90 -37 q-44 0 -44 48 q0 16 11 34 q2 4 95 95 q102 129 121 159.5 q19 30.5 19 60.5 q0 2 -3 15 ZM875 729 q89 40 136 56 q43 14 43 33 q0 6 -24 53 q-9 17 -11 17 q-5 0 -83 -86 q-26 -29 -61 -73 ZM1291 824 q63 58 90 91 q31 39 82 128 q-102 -38 -129 -61 q-38 -32 -49 -33 l-20 -2 q-4 -1 -3 -7 q0 -6 2 -12 l27 -104 ZM1302 755 q75 25 114 36 q77 21 77 45 q0 13 -13 25 q-16 14 -38 14 q-19 0 -38 -12 q-11 -7 -46 -49 q-13 -15 -39 -42 q-5 -6 -17 -17 ZM1341 674 q70 14 105 15 q42 0 42 13 q0 6 -43 57 l-68 -25 q-49 -15 -49 -19 q0 -1 4 -12 l9 -29 Z" /><glyph glyph-name="uni7172" unicode="&#x7172;" d="M686 1485 q90 -85 90 -136 q0 -24 -32 -62 q-37 -43 -94 -151 q-80 -150 -153 -220 q-128 -122 -164 -122 q-30 0 -30 30 q0 15 4 20 l139 150 l238 394 l2 97 ZM958 641 q17 -21 26 -31 q67 -66 67 -69 l9 -80 q3 -29 20 -43 q9 -8 15 -8 q24 0 95 65 q27 24 56 85 q35 74 35 81 q0 8 -10 28 l12 -18 l5 9 l2 -13 q66 -42 66 -98 q0 -36 -25 -60 q-15 -16 -82 -75 q-32 -28 -113 -48 q70 -44 125 -86 q164 -125 283 -157 l226 -60 q107 -29 107 -55 q0 -63 -166 -97 q-58 -12 -121 -28 q-50 -13 -86 -13 q-26 0 -70 31 q-106 74 -151.5 113 q-45.5 39 -80.5 85 q-70 91 -173 264 q-89 -194 -171 -271 q-158 -149 -409 -149 q-66 0 -66 37 q0 41 13 78 q8 20 19.5 28 q11.5 8 71.5 35 l3 1 l4 -2 l-2 -24 l1 -1 l2 -1 q3 13 30 12 q27 -1 115 30 q115 42 218 142 q47 47 59.5 66.5 q12.5 19.5 25.5 67.5 l30 114 l2 6 q0 2 -2 6 q-14 33 -15 103 ZM672 1102 q60 -60 60 -125 q0 -6 -25 -259 q-7 -65 -15 -75 q-5 -7 -16 -7 q-15 0 -32 11 q-32 22 -52 58 q-14 23 -13 35 l2 7 l91 355 ZM727 496 q-1 -18 -1 -27 q0 -37 15 -37 q11 0 37 19 q39 28 100 61 q-98 -100 -138 -168 q-32 -54 -53 -54 q-22 0 -47 25 q-31 32 -31 67 q0 11 43 76 q21 32 28 35 q10 4 27 4 q6 0 20 -1 ZM760 898 l8 -1 l-4 22 q13 0 57 27 l-37 -42 q70 20 104 33 q115 45 126 47 q92 21 107 26.5 q15 5.5 15 18.5 q0 18 -26 56 q40 -6 56 -17 q3 -2 33 -37 q4 -5 12 -5 l170 27 l124 0 q179 0 209 -29 q22 -21 22 -47 q0 -21 -22 -21 q-23 0 -150 34 q-33 9 -71 9 q-21 0 -50 -3 q-183 -20 -188 -20 q-37 0 -37 -27 q0 -25 6 -60 q7 -39 7 -69 q0 -8 -8 -84 q-20 -187 -50 -187 q-15 0 -73 45 q-44 34 -59 85 q17 -12 26 -12 q55 0 60 146 q2 55 15 98 q4 12 4 20 q0 13 -12 21 q-12 8 -16 6 q-229 -88 -240 -94 q-72 -43 -76 -43 q-35 2 -42 77 ZM924 810 l-2 -50 l143 87 q-65 -52 -85 -82 l-74 -115 q-4 -5 -12 -5 q-10 0 -20 10 q-17 18 -17 44 q0 49 67 111 ZM885 1358 q21 -17 58 -36 q22 -11 33 -57 q15 -63 19 -68 q7 -6 14 -6 q1 0 7 3 q8 4 34 11 q74 19 187 93 q38 24 71 60 q12 13 12 16 q0 23 -66 23 q-40 0 -104 -10 q-90 -13 -115 -32 q-3 -3 -5 -3 l-16 9 l-12 18 l1 3 q2 8 33 8 l4 0 q23 0 133 34 q46 15 87 15 q83 0 144 -60 q32 -32 32 -51 q0 -14 -25 -47 q-32 -42 -77 -65 q-53 -28 -52 -38 l3 -32 l-245 -63 l-105 -33 q-20 8 -19 33 l3 65 q-7 95 -9 131 q-1 16 -25 67 l0 12 ZM1257 883 q146 -21 195 -63 q65 -55 65 -130 q0 -14 -7.5 -27 q-7.5 -13 -15.5 -13 q-1 0 -24 14 l-63 31 q-94 137 -106 149 q-8 8 -27 24 q-6 5 -17 15 Z" /><glyph glyph-name="uni7535" unicode="&#x7535;" d="M431 1115 q8 0 15 -7 q20 -19 20 -50 q0 -110 -76 -188 q-27 -27 -49 -27 q-19 0 -33 33 q-14 35 -14 58 q0 4 63 66 l74 115 ZM538 1095 q204 78 317 89 q64 6 70 12 q11 11 11 73 q0 18 -17 27 l10 2 l-18 15 l10 1 l-3 10 q72 -6 91 -27 q5 -5 34 -82 q2 -6 15 -6 q3 0 61 11 q12 2 31 2 q233 0 352 -29 q118 -28 158 -74 q40 -44 40 -134 q0 -40 -3 -48.5 q-3 -8.5 -22 -19.5 q-32 -19 -52 -19 q-17 0 -46 12 q-22 10 -33 12 q-39 7 -39 27 q0 25 13 61 q55 27 55 57 q0 22 -24 46 q-27 27 -147 53 q-101 21 -204 15 l-150 -10 q-9 -385 -12 -389 q-17 -28 -75 -47 q23 -19 36 -19 q16 0 69 12 q27 6 65 6 q220 0 283 -71 q35 -40 35 -117 q0 -166 -130 -249 q-30 -20 -50 -24.5 q-20 -4.5 -74 -4.5 q-46 0 -56 8 q-3 3 -14 32 q-3 9 -17 9 q-22 0 -64 -8 q-37 -7 -111 -12 q8 -66 13 -101 q6 -47 27 -62 q30 -21 130 -34 q91 -12 183 -12 q130 0 243.5 13.5 q113.5 13.5 142.5 32.5 q18 11 59 119 q7 18 13 67 q1 8 10 8 q1 0 5 -3 l10 -5 l28 -90 q65 -104 69 -115 q11 -29 11 -52 q0 -36 -27 -52 q-42 -24 -103 -37 q-101 -22 -151 -22 l-251 8 q-161 5 -196 8.5 q-35 3.5 -87 19.5 q-158 51 -208 142 q-11 21 -36 142 l-130 -37 q-85 -24 -88 -25 q-2 -1 -3 -1 q-1 0 -15 9 l-4 53 l-23 94 l6 145 q0 26 -19 87 q23 -8 27.5 -13 q4.5 -5 12.5 -29 q43 -144 52 -251 l10 4 l-8 -30 q85 21 126 33 q26 7 38 9 q26 4 26 18 q0 11 -3 39 q-1 9 -1 13 q0 29 7 70 q-68 -18 -157 -62 q-4 -2 -9 -2 q-22 0 -22 19 q0 6 11 23 l14 26 l45 2 q125 42 129 47 q6 7 8 40 q2 36 18 98 q-63 -6 -92 -23 q-41 -22 -56 -22 q-14 0 -42 32 q70 35 108 39 q85 11 94 21 q3 4 11 49 l66 -9 q-39 26 -43 31 q-9 13 -9 29 l0 6 l16 220 l0 52 q8 57 8 62 q0 20 -22 19 q-1 0 -5 -2 q-18 -7 -76 -16 q-92 -13 -176 -57 q-45 -24 -65 -22 q-23 2 -45 35 ZM545 845 q116 12 173 35 q35 14 59 14 q12 0 12 -15 q0 -16 -25 -57 q-39 -19 -58 -19 q-2 0 -90 8 q-42 3 -52 10 q-7 4 -19 24 ZM776 1042 q55 0 55 -36 q0 -25 -20 -33 q-34 -15 -205 -15 q-16 0 -35 16 q-9 7 -9 13 q0 6 14 13 q81 42 200 42 ZM759 1422 l1 2 q39 -9 50 -9 q22 0 59 10 q111 29 197 29 q97 0 166 -23 q25 -8 25 -28 q0 -25 -33 -34 l-86 26 q-16 5 -34 5 q-38 0 -126 -9.5 q-88 -9.5 -104 -15.5 q-58 -21 -83 -21 q-35 0 -35 41 q0 11 3 27 ZM929 351 q67 9 100 16 q75 15 112 15 q4 0 17 -2 q22 -2 34 -2 q32 0 98 74 q27 29 50 97 q13 40 13 55 q0 31 -35 48 q-81 39 -242 39 q-65 0 -82 -19 q-7 -9 -44 -138 q136 33 216 33 q35 0 56 -21 q11 -11 11 -21 q0 -25 -32 -25 q-9 0 -36 9 q-19 6 -34 6 q-14 0 -96 -11 q-69 -10 -86 -21 q-20 -13 -20 -112 l0 -20 ZM1107 919 q154 34 198 34 q28 0 28 -18 q0 -15 -11 -28 q-21 -22 -52 -22 q-17 0 -52 7 q-35 6 -105 9 l20 6 l-26 12 ZM1113 1045 q137 41 200 41 q31 0 37 -16 l4 -11 l-8 -18 q-10 -23 -27 -21 l-76 6 l-109 -1 q-5 1 -17 16 q-1 1 -4 4 Z" /><glyph glyph-name="uni75C5" unicode="&#x75c5;" d="M1024 1405 q170 -43 170 -201 l0 -5 q0 -41 -55 -50 l0 -4 q150 -2 310 -36 l140 6 q106 -41 140 -105 q-19 -58 -55 -61 l-190 80 q-55 23 -170 42 q-88 13 -190 13 l-100 0 l-35 0 q-321 -43 -415 -84 l-195 -85 q-45 57 -45 80 l0 9 q0 31 130 61 l5 0 l-25 -40 l5 0 q399 115 680 120 l0 4 q-56 3 -81 30 q-30 33 -25 73 l1 8 l5 45 l0 50 l-5 50 ZM679 1010 q45 -104 45 -185 l0 -40 q0 -250 -140 -550 q-159 -217 -235 -225 q-37 -25 -60 -25 l-15 0 q-44 0 -69 35 q-11 16 -26 84 l-10 36 l15 15 l5 0 l50 -36 q95 32 202 177 q71 97 97 143 q26 48 61 140 q35 82 44 127 q25 117 26 298 l5 6 l5 0 ZM1374 895 q47 -3 75 -76 l0 -9 q-18 -31 -48 -31 q-43 0 -127 21 l-75 0 q-116 0 -230 -76 q-26 5 -50 116 q49 38 75 40 q8 -21 25 -30 q134 40 285 40 l20 0 l20 -6 l30 11 ZM414 810 l10 0 q13 -11 135 -31 l15 -34 q-1 -36 -50 -36 q-75 0 -110 101 ZM1139 745 l10 -16 l15 6 q32 -9 49 -21 q26 -18 31 -59 l10 -86 l30 0 l30 6 l5 -6 l5 0 l15 6 q139 -4 305 -86 q55 -67 55 -167 q0 -123 -61 -222 q-33 -54 -68 -83 q-18 -14 -116 -83 l-50 -34 l-5 0 q-34 0 -100 125 q-59 58 -65 94 l10 0 q34 -25 125 -25 q93 0 156 101 q16 26 35 72 q31 73 34 102 l5 46 q4 39 -44 65 q-71 40 -241 40 l-35 0 q-43 0 -45 -50 l-10 -46 q8 -10 150 -59 q50 -37 50 -83 q0 -34 -21 -64 q-13 -19 -32 -19 q-40 0 -167 160 l-10 0 q-100 -185 -210 -185 q-44 0 -65 31 l60 34 q111 177 130 256 q-152 -35 -190 -75 l-5 0 q-40 31 -40 60 l0 5 l250 75 l20 129 l-15 50 l5 6 l5 0 ZM629 689 l5 0 q-152 -193 -340 -290 q-58 27 -60 86 l10 10 l5 0 q10 0 10 -15 l5 -6 l5 0 q16 0 79 37 q45 25 126 77 q25 16 61 40 q60 41 69 46 l25 15 ZM774 424 q80 -206 80 -299 l0 -6 q-12 -50 -50 -50 l-25 0 q-18 0 -50 121 l40 234 l5 0 Z" /><glyph glyph-name="uni767E" unicode="&#x767e;" d="M320 1144 l-28 -72 l439 158 q111 40 350 74 q170 24 314 24 q39 0 85 -7 q157 -26 188 -26 q5 0 17 3 q27 6 28 6 q15 0 106 -44 q54 -27 50 -40 l-9 -29 q-10 -31 -16 -35 q-5 -4 -18 -5 q-22 2 -83 28 q-40 18 -196 46 q-93 17 -202 17 q-130 0 -345 -22 q112 -68 112 -134 q0 -54 -58 -139 q-63 -93 -105 -133 q-25 -25 -86 -54 q10 24 20 34 q3 3 3 4 l-3 11 q-4 3 -19 4 l-1 1 l0 1 l0 1 q1 0 1 1 q2 9 25 42 q23 32 58 172 q28 114 28 151 q0 33 -27 33 q-11 0 -165 -44 q-106 -30 -153 -51 q-55 -24 -109 -50 q-66 -32 -101 -48 q-50 -22 -70 -40 q-64 -57 -79 -55 q-14 2 -19 6 q-16 12 -29 43 q-12 29 -12 49 q0 33 15 55 q8 12 42 30 q18 11 52 34 ZM711 751 q63 -34 78 -64 l51 -102 q120 49 126 49 q20 0 72 -21 q34 -13 34 -30 q0 -29 -35 -55 q-10 -8 -90 -45 q-43 -21 -61 -24 q-20 -3 -20 -4 l-3 -79 l-3 -95 l68 5 q59 24 60 23 l44 -17 q65 -25 69 -28 q13 -12 13 -31 q0 -24 -18 -41 q-16 -16 -27 -15 l-73 4 q-8 0 -44 -13 q-95 -35 -144 -35 q-9 0 -20 5 q-5 2 -6 2 l-31 -6 l-19 27 l-20 0 l-22 40 q-33 48 -33 50 q0 3 3 18 l74 442 l-23 40 ZM1095 955 q65 17 109 17 q68 0 125 -56 q44 -45 66 -195 q66 -452 40 -533 q-5 -13 -52 -105 q-52 -103 -87 -103 q-17 0 -75 49 q-66 55 -66 81 q0 31 57 71 l20 124 l1 457 q0 128 -15 160 q-8 17 -39 17 q-18 0 -36 -1 q-8 -1 -11 -1 q-31 0 -37 18 Z" /><glyph glyph-name="uni7684" unicode="&#x7684;" d="M243 436 q-7 25 -7 44 q0 17 25 29 q37 18 88 94 l102 153 l48 79 l88 135 l75 136 q17 32 23 62 l6 35 q1 7 9 7 q14 0 37 -15 q34 -21 34 -50 q0 -11 -29 -59 l-65 -109 l-79 -112 l-186 -270 q-116 -137 -124 -141 q-11 -6 -30 -13 q-5 -2 -15 -5 ZM372 486 q50 -25 73 -46 q32 -28 36 -26 l63 24 q56 17 60 21 q2 2 28 25 q5 4 7 4 q2 0 9 -6 q7 -5 44 -12 q32 -5 40 -17 q6 -9 6 -10 l-1 -3 q-5 -13 -9 -17 q-3 -2 -57 -23 l-73 -58 l-55 -21 l31 -85 q16 -45 22 -43 l104 29 q79 7 87 13 q38 35 79 217 q26 115 26 185 q0 113 -63 113 q-22 0 -115 -45 q-38 -17 -40 -19 l-62 -54 q-9 -7 -19 -7 q-18 0 -107 47 q65 24 96 38 q153 72 168 74 l59 9 l76 13 q19 0 105 -36 q43 -18 51 -29 q14 -17 14 -70 q77 78 110 126 q33 48 75 144 q103 231 103 331 q0 12 -9 36 q112 -14 112 -67 q0 -44 -54 -220 q-52 -168 -72 -215.5 q-20 -47.5 -64 -110.5 q-29 -41 -82 -97 q125 -13 152 -45 q93 -112 93 -136 q0 -21 -21 -43 q-17 -18 -59 -18 q-34 0 -50 14 q-85 79 -107 125 q-34 75 -44 71 l-27 -13 q-48 -20 -48 -22 l2 -140 q-28 -101 -35 -119 q-16 -44 -104 -145 q-45 -52 -74 -52 q-24 0 -47 18 q-5 4 -50 68 l-222 -78 q-14 5 -38 29 q-24 0 -30 5 q-5 6 -52 99 l3 137 q0 22 -44 133 ZM1178 180 q101 -11 152 -21 q61 -12 102 -12 q37 0 72 47 q81 107 113 194 q70 191 70 358 q0 78 -32 106 q-15 13 -54 13 q-101 0 -162 -46 q-57 -43 -68 -43 q-20 0 -20 18 q0 19 19 31 q27 17 65 29 q140 43 203 43 q37 0 74 -33 q34 -30 59 -133 q30 -120 30 -157 q0 -40 -51 -241 q-30 -120 -64 -174 q-10 -16 -98 -108 l-24 -28 q-159 -100 -172 -100 q-15 0 -35 29 l-95 134 q-12 17 -73 75 l5 1 l-16 18 Z" /><glyph glyph-name="uni770B" unicode="&#x770b;" d="M372 690 q99 40 149 60 q199 82 303 84 q67 2 80 22 q14 22 21 66 q7 37 30 106 q-96 -19 -123 -28 l-127 -44 q-124 -40 -150 -61 q-28 -23 -35 -25 q-4 -1 -5 -2 q-1 -1 -2 -1 l-2 1 q-11 6 -13 12 q-22 49 -18 69 q3 17 3 19 q0 4 -7 7 l1 0 l27 -1 l60 18 l1 -24 l21 6 l369 98 q33 9 33 48 q0 18 -17 48 q43 -9 58 -25 q3 -3 23 -54 q4 -8 12 -7 l78 14 l216 8 l30 2 q42 0 84 -36 q14 -12 14 -14 q0 -2 -8 -7 q-8 -5 -14 -5 q-3 0 -10 2 q-63 17 -86 16 q-294 -18 -304 -19 q-22 -2 -31 -42 q-4 -17 -7 -35 q-6 -34 -25 -101 q150 17 370 17 q87 0 127 -7 q103 -17 131 -17 q3 0 11 2 q35 8 37 8 q6 0 48 -22 q85 -45 85 -87 q0 -29 -33 -29 q-8 0 -101 14 l-250 39 q-100 15 -183 15 q-17 0 -39 -1 q-84 -3 -161 -3 q-1 0 -11 1 q-46 4 -59 -13 q-9 -13 -21 -63 q-25 -98 -129 -252 q-90 -132 -251 -276 q-75 -67 -115 -84 q-23 -10 -53 -10 q-39 0 -62 33 q-23 33 -23 60 q0 26 19 70 q24 -27 40 -27 q40 0 194 144 q77 72 167 193 q50 69 63 89 q23 34 52 113 q-211 -43 -291 -68 q-133 -43 -196 -96 q-31 -26 -38 -26 q-14 0 -27 35 q-9 23 -18 39 q-12 21 -12 24 q0 8 61 46 l44 35 q8 0 15 -10 q5 -7 5 -12 q0 -14 -25 -49 ZM1240 1416 q13 22 13 25 q0 8 -19 12 q5 -3 6 -3 q20 3 21 9 q0 1 -1 3 q-13 14 -36 14 q-4 0 -13 -1 q23 0 31 0 q132 0 132 -55 q0 -20 -16 -35 q-22 -20 -172 -88 q-138 -67 -185 -84 q-61 -22 -292 -78 q-58 -14 -69 -14 q-16 0 -16 33 l0 5 q0 27 13 45 q7 8 12 9 l98 17 l143 43 q115 26 184 57 q52 24 166 86 ZM789 60 q17 13 21 34 q1 11 16 58 l20 112 l22 95 l7 67 q11 84 14.5 98 q3.5 14 13.5 14 q19 0 44 -20 q15 -12 17 -30 q1 -3 6 -105 l92 23 q4 0 19 -12 q2 0 3 0 q9 0 10 -12 l4 11 q5 -13 5 -22 q0 -16 -35 -26 q-99 -26 -107 -34 q-15 -14 -15 -42 q0 -20 3 -46 l-2 -15 l52 9 q72 23 82 23 q26 0 46 -17 q9 -9 9 -14 q0 -6 -8 -14 q-6 -7 -186 -46 q-3 -1 -4 -4 q-7 -17 -8 -48 q-1 -30 -12 -87 q157 42 208 42 q34 0 73 -30 l23 407 l-3 122 q0 11 2 26 q5 39 5 57 q0 20 -20 20 q-14 0 -45 -12 q-42 -16 -71 -51 q-34 -43 -36 -43 l-46 29 l-30 21 l-1 1 q0 3 12 4 q13 0 123 85 q45 34 96 34 q41 0 72 -39 q53 -65 53 -139 q0 -2 -1 -12 q-8 -50 -8 -57 q0 -12 11 -44 q31 -240 31 -446 q0 -68 -21 -88 q-24 -23 -42 -52 q-32 -31 -49 -31 q-18 0 -44 25 q-42 40 -70 139 q-102 -4 -191 -29 q-31 -8 -56 -8 q-21 0 -41 23 q-6 6 -36 46 q-1 29 -2 32 q-6 9 -25 18 Z" /><glyph glyph-name="uni8003" unicode="&#x8003;" d="M423 823 l-21 -43 q225 92 292 100 q99 11 118 39 q27 39 51 116 q12 38 41 109 q-98 -26 -127 -37 q-44 -16 -91 -73 q-46 95 -61 114 q-2 3 -2 5 q0 9 55 30 l50 20 q4 -3 6 -3 l9 2 l2 -2 l1 -2 q4 -3 4 -6 q0 -11 -43 -33 q79 37 125 42 q89 9 103 26 q16 20 19 72 q3 52 11 116 q4 37 4 62 q0 27 -18 50 q103 -41 133 -76 q23 -26 23 -58 l-19 -136 l0 -2 q0 -10 5 -10 l124 7 l137 -25 q13 2 29 40 q5 12 9 24 q11 35 41 97 q22 -41 22 -67 q0 -105 -184 -364 q156 6 251 6 q164 0 296 -44 q43 -14 75 -59 l-5 -4 q-4 -10 -4 -17 q0 -6 10 -12 q-13 -26 -19 -25 l-46 11 l-33 4 q-8 1 -45 24 q-42 25 -367 56 q-120 -4 -136 -5 q-26 -2 -43.5 -16.5 q-17.5 -14.5 -49.5 -61.5 q-13 -19 -123 -147 q64 12 96 20 q174 46 186 46 q32 0 52 -23 q13 -14 13 -30 q0 -7 -5 -13 q-1 -2 -280 -81 l-18 -84 q-7 -29 -42 -80 q66 14 99 21 q79 18 128 18 q62 0 113 -43 q27 -24 34 -61 q25 -141 25 -208 q0 -106 -83 -206 q-42 -51 -187 -148 q-29 -19 -40 -19 q-43 0 -70 47 q-7 12 -13 45 q-11 55 -57 118 l19 -20 l-44 64 q40 -26 43 -25 l54 16 l65 -5 l36 16 q34 4 42 11 q38 31 79 89 q17 24 32 102 q13 66 13 103 q0 34 -26 57 q-26 24 -56 24 q-70 0 -182 -40 q-84 -30 -189 -115 q-36 -29 -43 -29 q-9 0 -22 14 q-14 16 -14 29 q0 2 2 11 q2 8 5 55 q0 4 41 42 q5 5 78 105 q41 57 72 132 q-46 -46 -194 -199 q-43 -44 -141 -121.5 q-98 -77.5 -170 -124.5 q-93 -60 -122 -60 q-31 0 -66 30 q-13 12 -18 40 q-6 35 -9 40 q-9 13 -30 33 l33 19 q19 -11 30 -11 q26 0 265 160 q56 37 158 124 l80 67 l17 14 q49 44 74 66 q85 73 114 107 q19 20 57 78 q-86 -1 -108 -9 l-135 -53 q-10 -3 -17 -3 q-9 0 -22 5 q-40 17 -53 17 q-9 0 -35 -12 q-26 -12 -156 -50 q-122 -36 -213 -103 q-13 -9 -24 -22 q-28 -33 -31 -33 q-13 0 -19 22 q-14 51 -16 54 l-17 19 q-3 3 -3 9 q0 3 2 7 q1 2 68 34 l72 41 q14 8 64 16 ZM1001 940 q39 7 66 7 q2 0 16 -1 q13 -1 19 -1 q39 0 68 28 q106 122 118 141 q17 25 17 38 q0 11 -13 18 q-21 12 -49 11 l-15 -1 q-125 -4 -142 -14 q-18 -10 -41 -102 q-16 -68 -44 -124 Z" /><glyph glyph-name="uni8D1F" unicode="&#x8d1f;" d="M508 237 l-22 -42 l180 83 l-31 73 l83 369 q13 56 13 72 q0 5 -25 40 q-5 7 -5 14 q0 11 60 63 q66 57 105 110 l203 271 l27 59 q-19 -4 -32 -4 q-22 0 -47 35 l10 3 q34 6 61 6 q39 0 61 -24 q20 -22 20 -50 q0 -65 -154 -245 q-121 -143 -186 -191 q-66 -50 -66 -57 q0 -1 2 -5 q6 -9 10 -31 q6 -30 18 -29 l3 2 l171 75 q14 7 27 7 q17 0 33 -17 q14 -13 14 -26 q0 -8 -6 -16 q-7 -9 -102 -37 l-83 -42 l-61 -13 l-8 -95 l-7 -70 q1 -13 15 -13 l6 3 l225 87 q13 6 26 6 q16 0 27 -17 q8 -12 7 -14 l-2 -6 q-7 -20 -25 -30.5 q-18 -10.5 -80 -32.5 q-107 -36 -189 -43 q-8 0 -14 -23 l-1 -4 q0 -1 1 -3 q4 -10 4 -90 q0 -6 -3 -26 q69 29 134 50 q108 34 136 34 l4 0 l102 5 q11 11 15 24 q2 5 12 141 l17 144 l-3 212 l3 106 q0 54 -42 54 q-19 0 -78 -23 q62 48 105 48 q56 0 83 -51 q40 -75 45 -186 l15 -351 l10 -81 q-4 -213 -7 -220 q-11 -32 -62 -45 q63 -25 96 -38 q164 -63 202 -126 q26 -44 26 -63 q0 -27 -31 -54 q-13 -12 -30 -12 q-22 0 -43 8 q-106 43 -202 128 q-109 96 -181 136 q-81 45 -90 45 q-8 0 -77 -69 q-33 -33 -136 -91 q-130 -74 -210 -74 q-27 0 -46 17 q-13 13 -13 29 q0 18 20 50 l14 -8 l-2 -4 q50 1 88 15.5 q38 14.5 136 69.5 q99 55 147 100 q30 29 78 95 q-104 -25 -246 -78 q-162 -62 -278 -133 q-25 -15 -45 -15 q-6 0 -19 26 q-20 40 -20 41 q0 36 110 62 ZM503 950 q28 20 44 27 q40 20 48 29 q2 2 13 21 q9 15 77 81 q49 47 135 167 q30 42 47 89 q39 74 47 96 q6 16 12 16 l2 0 q20 0 39 -20 q14 -15 14 -35 q0 -27 -33 -84 q-142 -250 -213 -327 q-132 -144 -188 -144 q-15 0 -26 11 q-12 11 -17 67 l-1 6 ZM1022 237 l171 -35 q-36 40 -38 57 l-6 53 q-5 46 -44 46 q-20 0 -32 -15 q-2 -2 -22 -51 q-10 -25 -29 -55 Z" /><glyph glyph-name="uni8D25" unicode="&#x8d25;" d="M244 303 q2 -22 12 -22 q6 0 54 32 q18 11 74 33 q27 11 80 35 q-4 -1 -7 -1 q-22 -1 -51 32 l-19 21 q-15 19 -19 83 q23 50 29.5 72 q6.5 22 21.5 104 l16 65 q12 52 21 137 q3 31 9 71 q4 29 4 44 q0 9 -4 37 q-2 15 -2 17 q0 5 9 5 q19 0 29 -22 q16 -35 18 -166 q43 17 66 27 q55 26 87 26 q25 0 40 -21 q6 -9 6 -18 q0 -21 -20 -34 q-25 -15 -56 -18 l-100 -10 q-20 -1 -20 -28 q0 -10 2 -58 q1 -18 1 -23 q0 -34 -5 -86 q39 16 59 26 q74 38 107 38 q23 0 39 -18 q8 -10 8 -24 q0 -13 -10 -24 q-11 -13 -78 -21 q-66 -9 -127 -31 l-6 -186 q61 21 91 32 q60 21 93 20 q62 0 82.5 3.5 q20.5 3.5 25.5 17.5 q19 57 23 382 q2 178 8 228 q5 41 5 62 q0 54 -46 54 q-27 0 -68 -29 q-42 -31 -62 -31 q-19 0 -46 8 q113 86 181 86 q90 0 128 -119 q15 -49 38 -396 q14 -200 14 -284 q0 -85 -22 -107 q-74 -74 -88 -86.5 q-14 -12.5 -25 -12.5 q-4 0 -13 8 q-39 36 -64 85 q-18 38 -18 59 q0 10 7 34 q-27 5 -43 5 q-41 0 -58 -21 q-3 -3 -11 -73 l-7 -45 q2 -10 182 -79 q75 -29 145 -135 q21 -33 21 -42 q0 -14 -36 -35 q-4 -3 -20 -18 q-4 -4 -6 -4 q-2 0 -28 18 l-96 120 q-73 90 -88 103 q-19 15 -42 28 q-24 14 -33 24 q-3 3 -4 3 q-5 0 -35 -56 q-27 -51 -98 -121 q-91 -89 -206 -89 q-49 0 -62 26 q-14 29 -14 42 q0 7 9 12 q7 5 108 24 q35 7 91.5 46 q56.5 39 95.5 83 q45 51 92 156 q-207 -71 -264 -107 q-105 -67 -138 -67 q-25 0 -25 42 q0 46 58 52 ZM936 222 q34 -12 48 -12 q36 0 119 38 q66 30 100 70 q17 21 17 30 q0 20 -73 156 q-38 70 -46 70 q-4 0 -11 -7 l-2 -2 l-4 2 q-12 7 -11 15 l9 52 l-12 31 l24 -2 q10 0 20 77 q1 12 10 45 q21 86 28 264 l7 136 q0 2 -21 237 q68 -12 84 -27 q28 -25 28 -93 q0 -46 -22 -222 q-13 -105 -21 -199 q97 67 188 105 q134 56 171 56 q22 0 33 -6 q26 -13 26 -39 q0 -11 -10 -20 l-1 -1 l-67 3 q-1 0 -132 -41 q-73 -22 -91 -32 q-20 -11 -40 -23 q-31 -20 -79 -28 l-31 -132 l-31 -106 q0 -6 42 -36 q48 -33 62 -50 q20 -26 37 -55 q51 143 51 204 q0 29 -14 152 q28 -7 37 -22 q25 -40 25 -237 q0 -71 -12 -103 q-13 -33 -13 -44 q0 -20 29 -46 q94 -84 185 -122 l238 -101 q118 -49 158 -94 q-31 -10 -37 -15 l-66 -49 l-172 -31 l-54 -13 q-140 48 -155 58 l-24 21 l-75 63 l-102 126 q-99 -81 -106 -84 q-17 -8 -24 -8 q-3 0 -12 2 q-17 4 -54 4 q-51 1 -72 10 q-34 15 -79 75 Z" /><glyph glyph-name="uni996D" unicode="&#x996d;" d="M601 1355 l8 -5 l-1 6 q69 -35 69 -63 q0 -10 -6 -23 q-36 -74 -99 -138 l-240 -238 l-134 -59 q-55 -4 -63 -4 q-41 0 -41 38 q0 22 13 36 q3 3 97 42 q35 14 123 89 q149 128 189 178 q30 36 85 141 ZM549 402 l-3 14 q165 -40 225 -107 q30 -33 30 -61 q0 -22 -16 -38.5 q-16 -16.5 -38 -16.5 q-35 0 -86 66 q-59 -187 -116 -252 q-21 -24 -56 -41 q-17 -8 -24 -8 q-30 0 -74 49 q-49 53 -49 249 q0 35 30 183 l19 146 q39 127 54 196 q-51 -34 -74 -53 q-36 -30 -51 -30 q-8 0 -14 6 q-31 32 -31 50 q0 4 5 9 q2 1 64 18 q173 96 205 107 q103 38 183 38 q52 0 89 -34 q29 -27 29 -64 q0 -79 -38 -196 q-12 -36 -20 -48.5 q-8 -12.5 -35 -35.5 q-69 -57 -79 -57 l-56 1 q-11 0 -101 -72 q-63 -34 -68 -42 q-25 -41 -25 -229 q0 -75 24 -75 q21 0 86 71 q29 32 56 56 q49 45 49 70 q0 42 -94 131 ZM463 461 q52 41 82 58 q55 32 73 55 q61 61 74.5 76.5 q13.5 15.5 32.5 50.5 q-92 -5 -135 -31 q-31 -19 -76 -54 q-41 -31 -51 -155 ZM512 685 q140 74 180 74 q15 0 50 -15 q29 107 29 119 q0 28 -71 28 q-76 0 -135 -34 q-95 -54 -95 -67 q0 -17 22 -29 q26 -15 26 -33 q0 -16 -6 -43 ZM555 1086 q137 -9 137 -70 q0 -34 -35 -34 q-29 0 -67 55 q-9 12 -35 49 ZM664 1216 l5 9 q129 -5 178 -59 q22 -24 22 -47 q0 -41 -39 -41 q-23 0 -64 43 q-66 67 -102 95 ZM737 162 q-5 -16 -5 -25 q0 -24 18 -24 q5 0 49 68 q70 111 124 267 q30 88 52 231 q17 114 17 210 q0 44 -35 89 q51 -26 65 -52 q2 -3 29 -182 q1 -7 66 -57 q19 -16 85 -109 q29 -42 99 -115 q31 80 34 100 q28 199 28 231 q0 59 -32 59 l-162 -139 l-2 0 q-13 0 -31 33 l-20 30 q0 2 126 79 q77 46 88 50 q15 6 26 6 q29 0 55 -31 q43 -50 43 -133 q0 -15 -2 -33 q-10 -89 -10 -96 l4 -62 l-45 -173 q1 -5 42 -33 q127 -85 242 -126 l221 -78 q99 -36 99 -83 q0 -22 -28 -46 q-26 -21 -68 -31 q-52 -11 -318 -11 q-137 6 -310 242 q-92 -83 -147 -110 q-66 -34 -136 -34 q-58 0 -58 38 q0 24 25 81 q14 -8 34 -33 q3 -4 9 -4 q22 0 71 42 q50 43 84 68 q47 35 47 51 q0 25 -82 142 q-19 28 -79 194 q-25 -323 -116 -492 q-54 -100 -123 -158 q-50 -43 -90 -43 q-16 0 -28 34 q-15 40 -15 46 q0 2 1 4 l59 118 ZM944 984 q96 39 152 85 q10 8 63 52 q151 153 160 176 q15 38 29 38 q3 0 9 -2 q23 -10 28 -11 q39 -11 39 -32 q0 -16 -18.5 -35.5 q-18.5 -19.5 -79.5 -66.5 q-16 -12 -71 -70 q-79 -83 -153 -110 q-39 -14 -124 -23 l-34 -1 Z" /><glyph glyph-name="uni9AD8" unicode="&#x9ad8;" d="M1012 1196 q-33 10 -46 35 q-9 16 -9 17 l-10 139 q-1 15 -34 33 q40 4 71 4 q128 0 128 -132 q0 -37 -10 -55 q-8 -16 -38 -40 q199 23 297 23 q19 0 46 -4 q255 -39 260 -38 q100 21 105 21 q44 0 86 -49 q21 -25 21 -45 q0 -14 -10.5 -28 q-10.5 -14 -20.5 -14 q-17 0 -50 22 q-28 19 -70 30 q-168 43 -357 43 q-83 0 -145 -8 l-480 -65 l-36 -6 l-443 -145 q-17 -6 -28 -6 q-6 0 -12 5 q-1 1 -16 39 q-29 28 -29 38 q0 9 70 34 q49 -16 56 -16 q13 0 356 101 l348 67 ZM467 409 q72 -32 93 -71 q43 -82 43 -211 q0 -116 -61 -116 q-35 0 -77 61 q-23 34 -23 46 q0 6 29 107 q6 22 6 53 q0 35 -10 131 ZM1310 82 q55 -37 79 -37 q49 0 108 57 q77 74 77 353 q0 114 -31 134 q-22 14 -271 21 l-7 0 q-137 0 -414 -100 q-36 -13 -52.5 -23 q-16.5 -10 -78.5 -58 q-4 -3 -10 -3 q-11 0 -21 9 q-4 2 -26 54 l-27 33 q1 9 13 9 l76 0 l348 89 q123 32 280 32 q213 0 281 -72 q48 -51 48 -238 q0 -63 -22 -220 q-19 -139 -56 -167 q-17 -13 -61 -36 q-61 -31 -71 -31 q-16 0 -58 46 l-55 59 q-17 48 -49 89 ZM746 354 q92 -11 123 -38 q10 -10 51 -128 l64 27 l96 59 q74 46 92.5 61.5 q18.5 15.5 26.5 37.5 q4 13 7 17 q2 2 2 3 q0 2 -7 9 q-9 9 -26 9 q-26 0 -54 -11 q-110 -42 -145 -44 q-32 -2 -84 39 q81 22 122 35 q112 36 174 36 q64 0 114 -47 q26 -25 26 -78 q0 -33 -9 -51 q-16 -36 -65 -80 q27 -45 27 -62 q0 -9 -7 -19 q-2 -2 -217 -28 l-152 -41 l-40 47 l-52 41 l-15 76 q-13 65 -24 84 q-13 24 -28 46 ZM750 992 l61 -7 q10 0 49 -45 q5 -6 12 -6 q2 0 105 39 q92 34 200 34 q81 0 112 -39 q27 -36 27 -67 q0 -53 -88 -109 q-26 -16 -30 -29 q0 -3 -1 -37 q0 -2 -3 -4 q-7 -5 -153 -26 l-152 -44 q-15 0 -38 11 q-34 17 -61 70 q-26 51 -26 108 q0 18 4 43 q4 29 4 44 q0 21 -15 50 q-1 4 -7 14 ZM1128 938 q-71 0 -117 -18 q-111 -43 -121 -55 q-11 -12 -11 -30 q0 -34 25 -34 q43 0 127 45 q42 22 81 72 q6 6 16 20 Z" /></font>
</defs>
</svg>
